<?xml version="1.0" encoding="utf-8"?>
<!-- Generator: Adobe Illustrator 16.0.4, SVG Export Plug-In . SVG Version: 6.00 Build 0)  -->
<!DOCTYPE svg PUBLIC "-//W3C//DTD SVG 1.1//EN" "http://www.w3.org/Graphics/SVG/1.1/DTD/svg11.dtd">
<svg version="1.1" id="Layer_1" xmlns="http://www.w3.org/2000/svg" xmlns:xlink="http://www.w3.org/1999/xlink" x="0px" y="0px"
	 width="600px" height="600px" viewBox="0 0 600 600" enable-background="new 0 0 600 600" xml:space="preserve">
<g>
	<path fill="#C0C0C0" d="M73.936,449.495c45.736,45.756,106.581,70.979,171.284,70.979c44.461,0,88.171-12.417,126.421-35.895
		l8.096-4.947l85.424,85.456h133.813l-152.367-152.37l4.965-8.058c58.811-95.837,44.386-218.257-35.06-297.701
		C370.758,61.211,309.914,36.006,245.22,36.006c-64.703,0-125.504,25.205-171.262,70.953C28.199,152.72,2.974,213.557,2.974,278.245
		C2.974,342.926,28.175,403.752,73.936,449.495z M140.848,173.866c27.857-27.886,64.936-43.236,104.372-43.236
		c39.426,0,76.493,15.35,104.36,43.236c27.882,27.894,43.237,64.955,43.237,104.379c0,39.439-15.355,76.498-43.249,104.374
		c-27.847,27.876-64.922,43.225-104.349,43.225c-39.436,0-76.514-15.349-104.383-43.225c-27.88-27.907-43.236-64.953-43.236-104.374
		C97.601,238.82,112.957,201.759,140.848,173.866z"/>
	<g>
		<path fill="#EC7929" d="M306.283,295.222v0.363c1.827,3.328,2.856,7.109,2.906,11.152c0,12.738-10.348,23.078-23.092,23.078
			c-12.741,0-23.063-10.34-23.063-23.078c0-5.621,2.007-10.783,5.372-14.794c0,0,56.367-78.474-22.544-130.541
			c0,0,22.896,61.806-31.68,87.789c0,0-15.065,10.637,1.561-24.688c0,0-46.334,26.042-46.334,88.906
			c0,28.413,14.715,53.355,36.921,67.714c-0.691-2.564-1.125-5.499-1.125-8.958c0.023-25.211,22.617-54.678,29.562-54.633
			c0,0,1.754,29.865,9.768,43.946c6.313,11.915,2.479,25.113-5.895,31.712c3.75,0.541,7.575,0.914,11.485,0.914
			c21.308,0,40.707-8.27,55.132-21.787c0,0-0.024-0.069-0.024-0.093C332.143,336.839,316.534,308.073,306.283,295.222z"/>
	</g>
</g>
</svg>
