<?xml version="1.0" encoding="utf-8"?>
<!-- Generator: Adobe Illustrator 14.0.0, SVG Export Plug-In . SVG Version: 6.00 Build 43363)  -->
<!DOCTYPE svg PUBLIC "-//W3C//DTD SVG 1.1//EN" "http://www.w3.org/Graphics/SVG/1.1/DTD/svg11.dtd">
<svg version="1.1" id="Layer_1" xmlns="http://www.w3.org/2000/svg" xmlns:xlink="http://www.w3.org/1999/xlink" x="0px" y="0px"
	 width="32px" height="16px" viewBox="0 0 32 16" enable-background="new 0 0 32 16" xml:space="preserve">
<path d="M28,4V2c0-1.099-0.897-2-2-2H2C0.899,0,0,0.901,0,2v4.043h6.391c0.821-2.324,3.02-4,5.629-4V4h3.984v2H12.02v4h4.067v2
	H12.02v2.043c-2.609,0-4.808-1.676-5.629-4H0V14c0,1.1,0.899,2,2,2h24c1.103,0,2-0.9,2-2v-2h4V4H28z"/>
</svg>
