<?xml version="1.0" encoding="iso-8859-1"?>
<!-- Generator: Adobe Illustrator 14.0.0, SVG Export Plug-In . SVG Version: 6.00 Build 43363)  -->
<!DOCTYPE svg PUBLIC "-//W3C//DTD SVG 1.1//EN" "http://www.w3.org/Graphics/SVG/1.1/DTD/svg11.dtd">
<svg version="1.1" id="Layer_1" xmlns="http://www.w3.org/2000/svg" xmlns:xlink="http://www.w3.org/1999/xlink" x="0px" y="0px"
	 width="16px" height="32px" viewBox="0 0 16 32" style="enable-background:new 0 0 16 32;" xml:space="preserve">
<path style="fill:#231F20;" d="M14,0H2C0.895,0,0,0.896,0,2v22c0,4.417,3.582,8,8,8s8-3.583,8-8V2C16,0.896,15.105,0,14,0z M10,24
	c-1.105,0-2-0.896-2-2s0.895-2,2-2s2,0.896,2,2S11.105,24,10,24z M12,16h-1.945c-0.016-1.104-0.914-2-2.023-2s-2.008,0.896-2.023,2
	H4V4h8V16z"/>
</svg>
