<?xml version="1.0" encoding="iso-8859-1"?>
<!-- Generator: Adobe Illustrator 14.0.0, SVG Export Plug-In . SVG Version: 6.00 Build 43363)  -->
<!DOCTYPE svg PUBLIC "-//W3C//DTD SVG 1.1//EN" "http://www.w3.org/Graphics/SVG/1.1/DTD/svg11.dtd">
<svg version="1.1" id="Layer_1" xmlns="http://www.w3.org/2000/svg" xmlns:xlink="http://www.w3.org/1999/xlink" x="0px" y="0px"
	 width="32px" height="32px" viewBox="0 0 32 32" style="enable-background:new 0 0 32 32;" xml:space="preserve">
<g>
	<polygon style="fill:#231F20;" points="32,32 0,32 0,4 4,4 4,28 28,28 28,4 32,4 32,32 	"/>
	<rect x="6" y="12" style="fill:#231F20;" width="4" height="4"/>
	<rect x="14" y="12.008" style="fill:#231F20;" width="4" height="4"/>
	<rect x="22" y="12" style="fill:#231F20;" width="4" height="4"/>
	<rect x="6" y="20" style="fill:#231F20;" width="4" height="4"/>
	<rect x="14" y="20" style="fill:#231F20;" width="4" height="4"/>
	<polygon style="fill:#231F20;" points="22,24 22,20 26,20 	"/>
	<path style="fill:#231F20;" d="M8,6V2c0-1.104,0.895-2,2-2s2,0.896,2,2v4c0,1.104-0.895,2-2,2S8,7.104,8,6z"/>
	<path style="fill:#231F20;" d="M20,6V2c0-1.104,0.895-2,2-2s2,0.896,2,2v4c0,1.104-0.895,2-2,2S20,7.104,20,6z"/>
</g>
</svg>
