<?xml version="1.0" encoding="iso-8859-1"?>
<!-- Generator: Adobe Illustrator 14.0.0, SVG Export Plug-In . SVG Version: 6.00 Build 43363)  -->
<!DOCTYPE svg PUBLIC "-//W3C//DTD SVG 1.1//EN" "http://www.w3.org/Graphics/SVG/1.1/DTD/svg11.dtd">
<svg version="1.1" id="Layer_1" xmlns="http://www.w3.org/2000/svg" xmlns:xlink="http://www.w3.org/1999/xlink" x="0px" y="0px"
	 width="32px" height="32px" viewBox="0 0 32 32" style="enable-background:new 0 0 32 32;" xml:space="preserve">
<g>
	<path style="fill:#231F20;" d="M26,4v2.047c0,2.211-1.789,4-4,4s-4-1.789-4-4V4h-4v2.047c0,2.211-1.789,4-4,4s-4-1.789-4-4V4H0v28
		h32V4H26z M10,28H6v-4h4V28z M10,20H6v-4h4V20z M18,28h-4v-4h4V28z M18,20.008h-4v-4h4V20.008z M22,28v-4h4L22,28z M26,20h-4v-4h4
		V20z"/>
	<path style="fill:#231F20;" d="M8,6V2c0-1.104,0.895-2,2-2s2,0.896,2,2v4c0,1.104-0.895,2-2,2S8,7.104,8,6z"/>
	<path style="fill:#231F20;" d="M20,6V2c0-1.104,0.895-2,2-2s2,0.896,2,2v4c0,1.104-0.895,2-2,2S20,7.104,20,6z"/>
</g>
</svg>
