<?xml version="1.0" encoding="utf-8"?>
<!-- Generator: Adobe Illustrator 14.0.0, SVG Export Plug-In . SVG Version: 6.00 Build 43363)  -->
<!DOCTYPE svg PUBLIC "-//W3C//DTD SVG 1.1//EN" "http://www.w3.org/Graphics/SVG/1.1/DTD/svg11.dtd">
<svg version="1.1" xmlns="http://www.w3.org/2000/svg" xmlns:xlink="http://www.w3.org/1999/xlink" x="0px" y="0px" width="32px"
	 height="32px" viewBox="0 0 32 32" enable-background="new 0 0 32 32" xml:space="preserve">
<g id="Layer_1">
</g>
<g id="chat_x5F_32x32">
	<path fill="#231F20" d="M24,12V8c0-5.523-4-8-8-8H8C4,0,0,2.125,0,8c0,5.75,4,8,8,8h0.926C8.359,17.099,8,18.406,8,20v4
		c0,4.418,3.582,8,8,8c0-2.209,1.797-4,4-4h4c4,0,8-2.25,8-8C32,14.125,28,12,24,12z M8,12c-4,0-4-3.012-4-4c0-1.199,0-4,4-4h8
		c1.5,0,4,0.52,4,4v4c0,1.307-0.625,2.471-1.609,3.2C16.931,13.258,14.609,12,12,12H8z M24,24h-4c-2.609,0-4.938,1.258-6.397,3.199
		C12.629,26.469,12,25.305,12,24v-4c0-1.831,0.91-2.941,1.816-3.512C15.098,17.156,16,18.457,16,20c2.957,0,5.509-1.621,6.895-4.004
		c-0.004,0.001-0.004,0.001-0.004,0.004H24c4,0,4,2.802,4,4C28,20.989,28,24,24,24z M23.719,13.994
		c-0.027,0.092-0.059,0.182-0.085,0.271C23.66,14.176,23.696,14.086,23.719,13.994z"/>
</g>
</svg>
