<?xml version="1.0" encoding="utf-8"?>
<!-- Generator: Adobe Illustrator 14.0.0, SVG Export Plug-In . SVG Version: 6.00 Build 43363)  -->
<!DOCTYPE svg PUBLIC "-//W3C//DTD SVG 1.1//EN" "http://www.w3.org/Graphics/SVG/1.1/DTD/svg11.dtd">
<svg version="1.1" xmlns="http://www.w3.org/2000/svg" xmlns:xlink="http://www.w3.org/1999/xlink" x="0px" y="0px" width="32px"
	 height="32px" viewBox="0 0 32 32" enable-background="new 0 0 32 32" xml:space="preserve">
<g id="Layer_1">
</g>
<g id="chat_x5F_alt_x5F_fill_x5F_32x32">
	<g>
		<g>
			<path fill="#231F20" d="M24,12c0,4.418-3.578,8-8,8c0-2.207-1.793-4-4-4H8c-4,0-8-2.25-8-8c0-5.875,4-8,8-8h8c4,0,8,2.479,8,8V12
				z"/>
		</g>
		<path fill="#686062" d="M12,12"/>
		<path fill="#231F20" d="M12,12"/>
		<g>
			<g>
				<path fill="#231F20" d="M25.984,12.213C25.863,17.625,21.438,22,16,22h-2v-2c0-1.104-0.897-2-2-2H8.203
					C8.078,18.619,8,19.281,8,20v4c0,4.418,3.582,8,8,8c0-2.209,1.797-4,4-4h4c4,0,8-2.25,8-8C32,15.106,29.219,12.84,25.984,12.213
					z"/>
			</g>
		</g>
	</g>
</g>
</svg>
