<?xml version="1.0" encoding="utf-8"?>
<!-- Generator: Adobe Illustrator 14.0.0, SVG Export Plug-In . SVG Version: 6.00 Build 43363)  -->
<!DOCTYPE svg PUBLIC "-//W3C//DTD SVG 1.1//EN" "http://www.w3.org/Graphics/SVG/1.1/DTD/svg11.dtd">
<svg version="1.1" xmlns="http://www.w3.org/2000/svg" xmlns:xlink="http://www.w3.org/1999/xlink" x="0px" y="0px" width="32px"
	 height="32px" viewBox="0 0 32 32" enable-background="new 0 0 32 32" xml:space="preserve">
<g id="Layer_1">
</g>
<g id="chat_x5F_alt_x5F_stroke_x5F_32x32">
	<g>
		<g>
			<path fill="#231F20" d="M25.978,12.213c-0.024,1.386-0.337,2.695-0.884,3.889C27.978,16.582,28,18.93,28,20c0,0.989,0,4-3.996,4
				H20c-2.605,0-4.938,1.258-6.397,3.2C12.634,26.471,12,25.307,12,24v-4c0-0.792,0.141-1.414,0.359-1.928
				C12.243,18.051,12.125,18,12,18H8.203c-0.125,0.619-0.199,1.281-0.199,2v4c0,4.418,3.578,8,7.996,8c0-2.209,1.79-4,4-4h4.004
				C28,28,32,25.75,32,20C32,15.106,29.219,12.84,25.978,12.213z"/>
		</g>
		<path fill="#231F20" d="M16,4c1.493,0,4,0.52,4,4v4c0,1.309-0.632,2.471-1.601,3.2C16.938,13.26,14.609,12,12,12H8.004
			C4,12,4,8.989,4,8c0-1.195,0-4,4.004-4H16 M16,0H8.004C4,0,0,2.125,0,8c0,5.75,4,8,8.004,8H12c2.212,0,4,1.793,4,4
			c4.422,0,8.004-3.582,8.004-8V8C24.004,2.479,20,0,16,0L16,0z"/>
	</g>
</g>
</svg>
