<?xml version="1.0" encoding="iso-8859-1"?>
<!-- Generator: Adobe Illustrator 14.0.0, SVG Export Plug-In . SVG Version: 6.00 Build 43363)  -->
<!DOCTYPE svg PUBLIC "-//W3C//DTD SVG 1.1//EN" "http://www.w3.org/Graphics/SVG/1.1/DTD/svg11.dtd">
<svg version="1.1" id="Layer_1" xmlns="http://www.w3.org/2000/svg" xmlns:xlink="http://www.w3.org/1999/xlink" x="0px" y="0px"
	 width="32px" height="32px" viewBox="0 0 32 32" style="enable-background:new 0 0 32 32;" xml:space="preserve">
<g>
	<path style="fill:#231F20;" d="M16,4c6.617,0,12,5.383,12,12s-5.383,12-12,12S4,22.617,4,16S9.383,4,16,4 M16,0
		C7.164,0,0,7.164,0,16s7.164,16,16,16s16-7.164,16-16S24.836,0,16,0L16,0z"/>
	<path style="fill:#231F20;" d="M21.422,18.578L18,15.152V8h-4.023v7.992c0,0.602,0.277,1.122,0.695,1.493l3.922,3.922
		L21.422,18.578z"/>
</g>
</svg>
