<?xml version="1.0" encoding="utf-8"?>
<!-- Generator: Adobe Illustrator 14.0.0, SVG Export Plug-In . SVG Version: 6.00 Build 43363)  -->
<!DOCTYPE svg PUBLIC "-//W3C//DTD SVG 1.1//EN" "http://www.w3.org/Graphics/SVG/1.1/DTD/svg11.dtd">
<svg version="1.1" id="Layer_1" xmlns="http://www.w3.org/2000/svg" xmlns:xlink="http://www.w3.org/1999/xlink" x="0px" y="0px"
	 width="32px" height="20px" viewBox="0 0 32 20" enable-background="new 0 0 32 20" xml:space="preserve">
<path fill="#010101" d="M24,4c-0.379,0-0.738,0.062-1.103,0.11C21.507,1.648,18.929,0,16,0c-2.988,0-5.566,1.665-6.941,4.101
	C8.71,4.054,8.355,4,8,4c-4.41,0-8,3.586-8,8c0,4.414,3.59,8,8,8h16c4.413,0,8-3.586,8-8C32,7.586,28.413,4,24,4z M24,16H8
	c-2.207,0-4-1.797-4-4c0-2.195,1.944-3.883,4.007-3.945C8.012,9,8.179,9.922,8.507,10.797l3.743-1.399C12.085,8.953,12,8.484,12,8
	c0-2.204,1.793-4,4-4c1.293,0,2.465,0.641,3.199,1.64C17.272,7.101,16,9.395,16,12h4c0-2.204,1.793-4,4-4c2.21,0,4,1.796,4,4
	C28,14.203,26.21,16,24,16z"/>
</svg>
