<?xml version="1.0" encoding="iso-8859-1"?>
<!-- Generator: Adobe Illustrator 14.0.0, SVG Export Plug-In . SVG Version: 6.00 Build 43363)  -->
<!DOCTYPE svg PUBLIC "-//W3C//DTD SVG 1.1//EN" "http://www.w3.org/Graphics/SVG/1.1/DTD/svg11.dtd">
<svg version="1.1" id="Layer_1" xmlns="http://www.w3.org/2000/svg" xmlns:xlink="http://www.w3.org/1999/xlink" x="0px" y="0px"
	 width="32px" height="32px" viewBox="0 0 32 32" style="enable-background:new 0 0 32 32;" xml:space="preserve">
<path style="fill:#231F20;" d="M32,20v-8h-4.734c-0.141-0.391-0.289-0.771-0.469-1.146l3.344-3.339l-5.656-5.661l-3.344,3.344
	C20.777,5.026,20.375,4.933,20,4.792V0h-8v4.792c-0.383,0.141-0.781,0.234-1.145,0.406l-3.34-3.344l-5.66,5.661l3.34,3.339
	C5.02,11.229,4.871,11.609,4.734,12H0v8h4.734c0.137,0.391,0.285,0.771,0.461,1.146l-3.34,3.339l5.66,5.661l3.34-3.344
	c0.363,0.172,0.762,0.266,1.145,0.406V32h8v-4.792c0.375-0.141,0.777-0.234,1.141-0.406l3.344,3.344l5.656-5.661l-3.344-3.339
	c0.18-0.375,0.328-0.755,0.469-1.146H32z M16,20.083c-2.211,0-4-1.791-4-4c0-2.208,1.789-4,4-4c2.207,0,4,1.792,4,4
	C20,18.292,18.207,20.083,16,20.083z"/>
</svg>
