<?xml version="1.0" encoding="iso-8859-1"?>
<!-- Generator: Adobe Illustrator 14.0.0, SVG Export Plug-In . SVG Version: 6.00 Build 43363)  -->
<!DOCTYPE svg PUBLIC "-//W3C//DTD SVG 1.1//EN" "http://www.w3.org/Graphics/SVG/1.1/DTD/svg11.dtd">
<svg version="1.1" id="Layer_1" xmlns="http://www.w3.org/2000/svg" xmlns:xlink="http://www.w3.org/1999/xlink" x="0px" y="0px"
	 width="32px" height="32px" viewBox="0 0 32 32" style="enable-background:new 0 0 32 32;" xml:space="preserve">
<path style="fill:#231F20;" d="M20.004,8c2.203,0,4,1.789,4,3.995c0,2.203-1.797,3.997-4,3.997h-3.996c-3.07,0-5.875,1.164-8,3.062
	v-9.06c0-1.104,0.898-1.995,2-1.995H20.004 M20.004,0h-9.996c-5.52,0-9.996,4.477-9.996,9.995v9.997H0C0,26.625,5.375,32,12.008,32
	v-4.008c0-2.211,1.789-4,4-4h3.996C26.625,23.992,32,18.617,32,11.995C32,5.37,26.625,0,20.004,0L20.004,0z"/>
</svg>
