<?xml version="1.0" encoding="iso-8859-1"?>
<!-- Generator: Adobe Illustrator 14.0.0, SVG Export Plug-In . SVG Version: 6.00 Build 43363)  -->
<!DOCTYPE svg PUBLIC "-//W3C//DTD SVG 1.1//EN" "http://www.w3.org/Graphics/SVG/1.1/DTD/svg11.dtd">
<svg version="1.1" id="Layer_1" xmlns="http://www.w3.org/2000/svg" xmlns:xlink="http://www.w3.org/1999/xlink" x="0px" y="0px"
	 width="32px" height="24px" viewBox="0 0 32 24" style="enable-background:new 0 0 32 24;" xml:space="preserve">
<g>
	<path style="fill:#231F20;" d="M16,4c11.074,0,12,4.129,12,8c0,1.344-0.359,2.805-0.75,4H14c-4.703,0-6.734,0.195-9,1.758
		c-0.938-2.572-1.535-6.046-0.375-8.84C5.975,5.656,9.803,4,16,4 M16,0C-6.369,0,0.012,20,4.006,24c4-4,4-4,9.994-4h15.938
		c0,0,2.062-4,2.062-8C32,2,24,0,16,0L16,0z"/>
</g>
</svg>
