<?xml version="1.0" encoding="utf-8"?>
<!-- Generator: Adobe Illustrator 14.0.0, SVG Export Plug-In . SVG Version: 6.00 Build 43363)  -->
<!DOCTYPE svg PUBLIC "-//W3C//DTD SVG 1.1//EN" "http://www.w3.org/Graphics/SVG/1.1/DTD/svg11.dtd">
<svg version="1.1" id="Layer_1" xmlns="http://www.w3.org/2000/svg" xmlns:xlink="http://www.w3.org/1999/xlink" x="0px" y="0px"
	 width="32px" height="32px" viewBox="0 0 32 32" enable-background="new 0 0 32 32" xml:space="preserve">
<g>
	<path d="M16,4c6.618,0,12,5.383,12,12s-5.382,12-12,12C9.384,28,4,22.617,4,16S9.384,4,16,4 M16,0C7.165,0,0,7.164,0,16
		s7.165,16,16,16c8.837,0,16-7.164,16-16S24.837,0,16,0L16,0z"/>
	<g>
		<path d="M18.125,13.879c0.797,0.798,1.009,1.93,0.719,2.944L24,8l-8.703,5.138C16.281,12.896,17.359,13.109,18.125,13.879z"/>
		<path d="M13.884,18.121c-0.774-0.771-0.984-1.85-0.743-2.836L8,24l8.832-5.16C15.816,19.133,14.688,18.922,13.884,18.121z"/>
	</g>
</g>
</svg>
