<?xml version="1.0" encoding="iso-8859-1"?>
<!-- Generator: Adobe Illustrator 14.0.0, SVG Export Plug-In . SVG Version: 6.00 Build 43363)  -->
<!DOCTYPE svg PUBLIC "-//W3C//DTD SVG 1.1//EN" "http://www.w3.org/Graphics/SVG/1.1/DTD/svg11.dtd">
<svg version="1.1" id="Layer_1" xmlns="http://www.w3.org/2000/svg" xmlns:xlink="http://www.w3.org/1999/xlink" x="0px" y="0px"
	 width="32px" height="32px" viewBox="0 0 32 32" style="enable-background:new 0 0 32 32;" xml:space="preserve">
<path style="fill:#231F20;" d="M16,0C7.164,0,0,7.164,0,16c0,8.836,7.164,16,16,16s16-7.164,16-16C32,7.164,24.836,0,16,0z M16,8
	c0.711,0,1.387,0.121,2.043,0.297l-9.742,9.75C8.121,17.391,8,16.71,8,16C8,11.586,11.59,8,16,8z M16,24
	c-0.711,0-1.387-0.125-2.043-0.297l9.742-9.75C23.879,14.609,24,15.289,24,16C24,20.414,20.41,24,16,24z"/>
</svg>
