<?xml version="1.0" encoding="utf-8"?>
<!-- Generator: Adobe Illustrator 14.0.0, SVG Export Plug-In . SVG Version: 6.00 Build 43363)  -->
<!DOCTYPE svg PUBLIC "-//W3C//DTD SVG 1.1//EN" "http://www.w3.org/Graphics/SVG/1.1/DTD/svg11.dtd">
<svg version="1.1" xmlns="http://www.w3.org/2000/svg" xmlns:xlink="http://www.w3.org/1999/xlink" x="0px" y="0px" width="32px"
	 height="31.828px" viewBox="0 0 32 31.828" enable-background="new 0 0 32 31.828" xml:space="preserve">
<g id="Layer_1">
</g>
<g id="dial_x5F_32x32">
	<g>
		<path fill="#4E4E50" d="M16,11.828c-2.21,0-4,1.79-4,4c0,2.208,1.79,4,4,4c2.212,0,4-1.793,4-4C20,13.617,18.212,11.828,16,11.828
			z"/>
		<path fill="#010101" d="M28.556,6.047c-0.344,0.281-0.766,0.469-1.243,0.469c-1.101,0-2-0.895-2-2
			c0-0.488,0.196-0.918,0.484-1.266c-2.219-1.711-4.906-2.864-7.835-3.227C17.859,1.031,17.04,1.828,16,1.828
			c-1.038,0-1.871-0.808-1.96-1.828c-2.969,0.382-5.672,1.555-7.911,3.324C6.384,3.66,6.562,4.062,6.562,4.516c0,1.105-0.891,2-2,2
			c-0.444,0-0.844-0.176-1.179-0.426C1.297,8.796,0,12.145,0,15.828c0,8.836,7.165,16,16,16c8.837,0,16-7.164,16-16
			C32,12.113,30.688,8.746,28.556,6.047z M16,23.828c-4.418,0-8-3.582-8-8c0-2.211,0.895-4.208,2.344-5.657L16,4.515l5.649,5.645
			C23.103,11.613,24,13.613,24,15.828C24,20.246,20.415,23.828,16,23.828z"/>
	</g>
</g>
</svg>
