<?xml version="1.0" encoding="iso-8859-1"?>
<!-- Generator: Adobe Illustrator 14.0.0, SVG Export Plug-In . SVG Version: 6.00 Build 43363)  -->
<!DOCTYPE svg PUBLIC "-//W3C//DTD SVG 1.1//EN" "http://www.w3.org/Graphics/SVG/1.1/DTD/svg11.dtd">
<svg version="1.1" id="Layer_1" xmlns="http://www.w3.org/2000/svg" xmlns:xlink="http://www.w3.org/1999/xlink" x="0px" y="0px"
	 width="32px" height="32.023px" viewBox="0 0 32 32.023" style="enable-background:new 0 0 32 32.023;" xml:space="preserve">
<path style="fill:#231F20;" d="M22.016,0H0v31.961l8.053-6.582l8.016,6.645l8.016-6.637L32,32.008v-22L22.016,0z M28.021,23.955
	l-3.953-3.229c0,0-0.041,0.034-0.104,0.086l-7.896,6.535L8.09,20.734l-4.084,3.221c0,0,0-17.373,0-20.016c2.1,0,7.807,0,12.006,0
	v12.01h12.01C28.021,18.682,28.021,23.955,28.021,23.955z M20.016,11.945c0-1.543,0-5.918,0-8.006
	c1.615,1.619,6.402,6.404,8.006,8.006C25.975,11.945,21.568,11.945,20.016,11.945z"/>
</svg>
