<?xml version="1.0" encoding="utf-8"?>
<!-- Generator: Adobe Illustrator 14.0.0, SVG Export Plug-In . SVG Version: 6.00 Build 43363)  -->
<!DOCTYPE svg PUBLIC "-//W3C//DTD SVG 1.1//EN" "http://www.w3.org/Graphics/SVG/1.1/DTD/svg11.dtd">
<svg version="1.1" id="Layer_1" xmlns="http://www.w3.org/2000/svg" xmlns:xlink="http://www.w3.org/1999/xlink" x="0px" y="0px"
	 width="28px" height="32px" viewBox="0 0 28 32" enable-background="new 0 0 28 32" xml:space="preserve">
<g>
	<path d="M20,0v3.875c0,1.602-0.625,3.109-1.755,4.239L6.93,19.367C5.141,21.151,4.156,23.495,4.047,26H0l6,6l6-6H8.042
		c0.106-1.438,0.685-2.773,1.708-3.805l11.32-11.25C22.961,9.055,24,6.547,24,3.875V0H20z"/>
	<path d="M23.953,26c-0.109-2.505-1.099-4.849-2.891-6.641l-2.227-2.214L16,19.964l2.242,2.231c1.031,1.028,1.609,2.367,1.711,3.805
		H16l6,6l6-6H23.953z"/>
</g>
</svg>
