<?xml version="1.0" encoding="utf-8"?>
<!-- Generator: Adobe Illustrator 14.0.0, SVG Export Plug-In . SVG Version: 6.00 Build 43363)  -->
<!DOCTYPE svg PUBLIC "-//W3C//DTD SVG 1.1//EN" "http://www.w3.org/Graphics/SVG/1.1/DTD/svg11.dtd">
<svg version="1.1" xmlns="http://www.w3.org/2000/svg" xmlns:xlink="http://www.w3.org/1999/xlink" x="0px" y="0px" width="32px"
	 height="32px" viewBox="0 0 32 32" enable-background="new 0 0 32 32" xml:space="preserve">
<g id="Layer_1">
</g>
<g id="fullscreen_x5F_32x32">
	<g>
		<polygon fill="#231F20" points="27.414,24.586 22.828,20 20,22.828 24.586,27.414 20,32 32,32 32,20 		"/>
		<polygon fill="#231F20" points="12,0 0,0 0,12 4.586,7.414 9.125,11.953 11.953,9.125 7.414,4.586 		"/>
		<polygon fill="#231F20" points="12,22.828 9.172,20 4.586,24.586 0,20 0,32 12,32 7.414,27.414 		"/>
		<polygon fill="#231F20" points="32,0 20,0 24.586,4.586 20.042,9.125 22.87,11.953 27.414,7.414 32,12 		"/>
	</g>
</g>
</svg>
