<?xml version="1.0" encoding="utf-8"?>
<!-- Generator: Adobe Illustrator 14.0.0, SVG Export Plug-In . SVG Version: 6.00 Build 43363)  -->
<!DOCTYPE svg PUBLIC "-//W3C//DTD SVG 1.1//EN" "http://www.w3.org/Graphics/SVG/1.1/DTD/svg11.dtd">
<svg version="1.1" xmlns="http://www.w3.org/2000/svg" xmlns:xlink="http://www.w3.org/1999/xlink" x="0px" y="0px" width="32px"
	 height="32px" viewBox="0 0 32 32" enable-background="new 0 0 32 32" xml:space="preserve">
<g id="Layer_1">
</g>
<g id="fullscreen_x5F_exit_x5F_alt_x5F_32x32">
	<g>
		<polygon fill="#231F20" points="22.586,25.414 29.172,32 32,29.172 25.414,22.586 28,20 20,20 20,28 		"/>
		<polygon fill="#231F20" points="6.547,9.371 4,12 11.961,11.957 12,4 9.375,6.543 2.828,0 0,2.828 		"/>
		<polygon fill="#231F20" points="0,29.172 2.828,32 9.414,25.414 12,28 12,20 4,20 6.586,22.586 		"/>
		<polygon fill="#231F20" points="28.031,12 25.438,9.404 32,2.838 29.164,0 22.594,6.566 20,3.971 20,12 		"/>
	</g>
</g>
</svg>
