<?xml version="1.0" encoding="utf-8"?>
<!-- Generator: Adobe Illustrator 14.0.0, SVG Export Plug-In . SVG Version: 6.00 Build 43363)  -->
<!DOCTYPE svg PUBLIC "-//W3C//DTD SVG 1.1//EN" "http://www.w3.org/Graphics/SVG/1.1/DTD/svg11.dtd">
<svg version="1.1" xmlns="http://www.w3.org/2000/svg" xmlns:xlink="http://www.w3.org/1999/xlink" x="0px" y="0px" width="32px"
	 height="32px" viewBox="0 0 32 32" enable-background="new 0 0 32 32" xml:space="preserve">
<g id="Layer_1">
</g>
<g id="fullscreen_x5F_exit_x5F_32x32">
	<g>
		<polygon fill="#231F20" points="24.586,27.414 29.172,32 32,29.172 27.414,24.586 32,20 20,20 20,32 		"/>
		<polygon fill="#231F20" points="0,12 12,12 12,0 7.414,4.586 2.875,0.043 0.047,2.871 4.586,7.414 		"/>
		<polygon fill="#231F20" points="0,29.172 2.828,32 7.414,27.414 12,32 12,20 0,20 4.586,24.586 		"/>
		<polygon fill="#231F20" points="20,12 32,12 27.414,7.414 31.961,2.871 29.133,0.043 24.586,4.586 20,0 		"/>
	</g>
</g>
</svg>
