<?xml version="1.0" encoding="iso-8859-1"?>
<!-- Generator: Adobe Illustrator 14.0.0, SVG Export Plug-In . SVG Version: 6.00 Build 43363)  -->
<!DOCTYPE svg PUBLIC "-//W3C//DTD SVG 1.1//EN" "http://www.w3.org/Graphics/SVG/1.1/DTD/svg11.dtd">
<svg version="1.1" id="Layer_1" xmlns="http://www.w3.org/2000/svg" xmlns:xlink="http://www.w3.org/1999/xlink" x="0px" y="0px"
	 width="32px" height="28px" viewBox="0 0 32 28" style="enable-background:new 0 0 32 28;" xml:space="preserve">
<path style="fill:#231F20;" d="M30,16h-2v-4c0-6.627-5.375-12-12-12S4,5.373,4,12v4H2c-1.105,0-2,0.895-2,2v8c0,1.105,0.895,2,2,2h6
	V16v-4c0-4.411,3.586-8,8-8s8,3.589,8,8v4v12h6c1.104,0,2-0.895,2-2v-8C32,16.895,31.104,16,30,16z"/>
</svg>
