<?xml version="1.0" encoding="iso-8859-1"?>
<!-- Generator: Adobe Illustrator 14.0.0, SVG Export Plug-In . SVG Version: 6.00 Build 43363)  -->
<!DOCTYPE svg PUBLIC "-//W3C//DTD SVG 1.1//EN" "http://www.w3.org/Graphics/SVG/1.1/DTD/svg11.dtd">
<svg version="1.1" id="Layer_1" xmlns="http://www.w3.org/2000/svg" xmlns:xlink="http://www.w3.org/1999/xlink" x="0px" y="0px"
	 width="32px" height="28px" viewBox="0 0 32 28" style="enable-background:new 0 0 32 28;" xml:space="preserve">
<g>
	<path style="fill:#231F20;" d="M23.115,4c2.453,0,4.49,1.82,4.834,4.188L16.006,21.906L4.053,8.188C4.396,5.82,6.428,4,8.887,4
		c2.016,0,3.854,2.164,3.854,2.164L16,9.625l3.256-3.461C19.256,6.164,21.1,4,23.115,4 M23.115,0c-2.984,0-5.5,1.578-7.115,3.844
		C14.387,1.578,11.871,0,8.887,0C3.984,0,0,3.992,0,8.891v0.734L16.006,28L32,9.625V8.891C32,3.992,28.016,0,23.115,0L23.115,0z"/>
</g>
</svg>
