<?xml version="1.0" encoding="iso-8859-1"?>
<!-- Generator: Adobe Illustrator 14.0.0, SVG Export Plug-In . SVG Version: 6.00 Build 43363)  -->
<!DOCTYPE svg PUBLIC "-//W3C//DTD SVG 1.1//EN" "http://www.w3.org/Graphics/SVG/1.1/DTD/svg11.dtd">
<svg version="1.1" id="Layer_1" xmlns="http://www.w3.org/2000/svg" xmlns:xlink="http://www.w3.org/1999/xlink" x="0px" y="0px"
	 width="20.051px" height="32px" viewBox="0 0 20.051 32" style="enable-background:new 0 0 20.051 32;" xml:space="preserve">
<g>
	<path style="fill:#231F20;" d="M10.024,4.007c3.32,0,6.019,2.7,6.019,6.017c0,1.894-0.867,3.636-2.379,4.773
		c-2.266,1.707-3.18,3.593-3.496,5.179H9.883c-0.313-1.586-1.23-3.473-3.493-5.179c-1.515-1.137-2.382-2.879-2.382-4.773
		C4.008,6.707,6.707,4.007,10.024,4.007 M10.024,0C4.488,0,0,4.488,0,10.024c0,3.28,1.547,6.147,3.977,7.976
		c1.121,0.844,2.042,1.93,2.042,3.43v2.555h8.012V21.43c0-1.5,0.922-2.586,2.043-3.43c2.43-1.829,3.977-4.696,3.977-7.976
		C20.051,4.488,15.562,0,10.024,0L10.024,0z"/>
	<rect x="6.02" y="27.992" style="fill:#231F20;" width="8.012" height="4.008"/>
</g>
</svg>
