<?xml version="1.0" encoding="utf-8"?>
<!-- Generator: Adobe Illustrator 14.0.0, SVG Export Plug-In . SVG Version: 6.00 Build 43363)  -->
<!DOCTYPE svg PUBLIC "-//W3C//DTD SVG 1.1//EN" "http://www.w3.org/Graphics/SVG/1.1/DTD/svg11.dtd">
<svg version="1.1" xmlns="http://www.w3.org/2000/svg" xmlns:xlink="http://www.w3.org/1999/xlink" x="0px" y="0px" width="32px"
	 height="32px" viewBox="0 0 32 32" enable-background="new 0 0 32 32" xml:space="preserve">
<g id="Layer_1">
</g>
<g id="link_x5F_32x32">
	<g>
		<path fill="#010101" d="M31.414,0.586c-0.781-0.781-2.047-0.781-2.828,0l-4.071,4.073C22.847,3.553,20.921,3,18.999,3
			c-2.559,0-5.116,0.977-7.069,2.93l-6,6c-3.422,3.42-3.844,8.703-1.274,12.584l-4.069,4.072c-0.781,0.781-0.781,2.047,0,2.828
			C0.977,31.805,1.487,32,1.999,32c0.516,0,1.024-0.195,1.415-0.586l4.069-4.072C9.155,28.447,11.077,29,12.999,29
			c2.562,0,5.118-0.977,7.071-2.93l6-6c3.422-3.419,3.844-8.703,1.272-12.583l4.071-4.073C32.195,2.633,32.195,1.367,31.414,0.586z
			 M24.999,13c0,1.602-0.625,3.109-1.757,4.242l-6,6C16.108,24.375,14.602,25,12.999,25c-0.906,0-1.772-0.221-2.569-0.602
			l2.984-2.984c0.781-0.781,0.781-2.047,0-2.828s-2.047-0.781-2.828,0L7.602,21.57C7.218,20.775,6.999,19.908,6.999,19
			c0-1.602,0.625-3.109,1.759-4.242l6-6C15.89,7.625,17.398,7,18.999,7c0.906,0,1.774,0.221,2.571,0.602l-3.047,3.047
			c-0.781,0.781-0.781,2.047,0,2.828c0.391,0.391,0.901,0.586,1.413,0.586c0.516,0,1.024-0.195,1.415-0.586l3.047-3.047
			C24.78,11.225,24.999,12.092,24.999,13z"/>
	</g>
</g>
</svg>
