<?xml version="1.0" encoding="iso-8859-1"?>
<!-- Generator: Adobe Illustrator 14.0.0, SVG Export Plug-In . SVG Version: 6.00 Build 43363)  -->
<!DOCTYPE svg PUBLIC "-//W3C//DTD SVG 1.1//EN" "http://www.w3.org/Graphics/SVG/1.1/DTD/svg11.dtd">
<svg version="1.1" id="Layer_1" xmlns="http://www.w3.org/2000/svg" xmlns:xlink="http://www.w3.org/1999/xlink" x="0px" y="0px"
	 width="24.006px" height="32px" viewBox="0 0 24.006 32" style="enable-background:new 0 0 24.006 32;" xml:space="preserve">
<path style="fill:#231F20;" d="M14.006,0c-5.508,0-10,4.485-10,10v2H0v14c0,3.309,2.693,6,6,6h12.006c3.307,0,6-2.691,6-6V10
	C24.006,4.485,19.516,0,14.006,0z M12,24c-1.104,0-2-0.895-2-2s0.896-2,2-2c1.107,0,2,0.895,2,2S13.107,24,12,24z M20.006,12h-12v-2
	c0-3.309,2.695-6,6-6c3.307,0,6,2.691,6,6V12z"/>
</svg>
