<?xml version="1.0" encoding="iso-8859-1"?>
<!-- Generator: Adobe Illustrator 14.0.0, SVG Export Plug-In . SVG Version: 6.00 Build 43363)  -->
<!DOCTYPE svg PUBLIC "-//W3C//DTD SVG 1.1//EN" "http://www.w3.org/Graphics/SVG/1.1/DTD/svg11.dtd">
<svg version="1.1" id="Layer_1" xmlns="http://www.w3.org/2000/svg" xmlns:xlink="http://www.w3.org/1999/xlink" x="0px" y="0px"
	 width="24.008px" height="32px" viewBox="0 0 24.008 32" style="enable-background:new 0 0 24.008 32;" xml:space="preserve">
<g>
	<path style="fill:#231F20;" d="M14.008,0c-5.512,0-10,4.484-10,10v2H0v14c0,3.305,2.695,6,6,6h12.008c3.312,0,6-2.695,6-6V10
		C24.008,4.484,19.523,0,14.008,0z M8.008,10c0-3.312,2.695-6,6-6c3.312,0,6,2.688,6,6v2h-12V10z M18.008,28H6c-1.102,0-2-0.898-2-2
		V16h16.008v10C20.008,27.102,19.113,28,18.008,28z"/>
	<path style="fill:#231F20;" d="M14.008,22c0,1.102-0.898,2-2,2c-1.109,0-2-0.898-2-2c0-1.109,0.891-2,2-2
		C13.109,20,14.008,20.891,14.008,22z"/>
</g>
</svg>
