<?xml version="1.0" encoding="utf-8"?>
<!-- Generator: Adobe Illustrator 14.0.0, SVG Export Plug-In . SVG Version: 6.00 Build 43363)  -->
<!DOCTYPE svg PUBLIC "-//W3C//DTD SVG 1.1//EN" "http://www.w3.org/Graphics/SVG/1.1/DTD/svg11.dtd">
<svg version="1.1" id="Layer_1" xmlns="http://www.w3.org/2000/svg" xmlns:xlink="http://www.w3.org/1999/xlink" x="0px" y="0px"
	 width="32px" height="24px" viewBox="0 0 32 24" enable-background="new 0 0 32 24" xml:space="preserve">
<g>
	<path d="M26,12l-6,6h4c0,1.102-0.897,2-2,2H10c-1.101,0-2-0.898-2-2v-2H4v2c0,3.308,2.691,6,6,6h12c3.312,0,6-2.692,6-6h4L26,12z"
		/>
	<path d="M22,0H10C6.691,0,4,2.692,4,6v0.062H0L6,12l6-5.938H8V6c0-1.102,0.899-2,2-2h12c1.103,0,2,0.898,2,2v2h4V6
		C28,2.692,25.312,0,22,0z"/>
</g>
</svg>
