<?xml version="1.0" encoding="iso-8859-1"?>
<!-- Generator: Adobe Illustrator 14.0.0, SVG Export Plug-In . SVG Version: 6.00 Build 43363)  -->
<!DOCTYPE svg PUBLIC "-//W3C//DTD SVG 1.1//EN" "http://www.w3.org/Graphics/SVG/1.1/DTD/svg11.dtd">
<svg version="1.1" id="Layer_1" xmlns="http://www.w3.org/2000/svg" xmlns:xlink="http://www.w3.org/1999/xlink" x="0px" y="0px"
	 width="31.999px" height="32px" viewBox="0 0 31.999 32" style="enable-background:new 0 0 31.999 32;" xml:space="preserve">
<g>
	<path style="fill:#231F20;" d="M9.804,3.677l-5.803,5.8V3.841H0v11.997h12.001v-4H7.298l5.335-5.333
		c3.387-3.391,9.307-3.391,12.701,0l2.828-2.828C23.261-1.229,14.708-1.222,9.804,3.677z"/>
	<path style="fill:#231F20;" d="M19.999,16.033v4h4.703l-5.336,5.338c-3.389,3.395-9.307,3.395-12.701,0l-2.829,2.824
		C6.287,30.648,9.55,32,13.021,32c3.469,0,6.725-1.352,9.174-3.805l5.805-5.803v5.639h4V16.033H19.999z"/>
</g>
</svg>
