<?xml version="1.0" encoding="utf-8"?>
<!-- Generator: Adobe Illustrator 14.0.0, SVG Export Plug-In . SVG Version: 6.00 Build 43363)  -->
<!DOCTYPE svg PUBLIC "-//W3C//DTD SVG 1.1//EN" "http://www.w3.org/Graphics/SVG/1.1/DTD/svg11.dtd">
<svg version="1.1" id="Layer_1" xmlns="http://www.w3.org/2000/svg" xmlns:xlink="http://www.w3.org/1999/xlink" x="0px" y="0px"
	 width="32px" height="28px" viewBox="0 0 32 28" enable-background="new 0 0 32 28" xml:space="preserve">
<g>
	<path d="M19.946,20l6.007-8L32,20h-4v2c0,3.308-2.688,6-6,6H10c-3.309,0-6-2.692-6-6v-2h4v2c0,1.102,0.899,2,2,2h12
		c1.103,0,2-0.898,2-2v-2H19.946z"/>
	<path d="M12.056,8l-6.009,8L0,8h4V6c0-3.308,2.691-6,6-6h12c3.312,0,6,2.692,6,6v2h-4V6c0-1.102-0.897-2-2-2H10
		C8.899,4,8,4.898,8,6v2H12.056z"/>
</g>
</svg>
