<?xml version="1.0" encoding="iso-8859-1"?>
<!-- Generator: Adobe Illustrator 14.0.0, SVG Export Plug-In . SVG Version: 6.00 Build 43363)  -->
<!DOCTYPE svg PUBLIC "-//W3C//DTD SVG 1.1//EN" "http://www.w3.org/Graphics/SVG/1.1/DTD/svg11.dtd">
<svg version="1.1" id="Layer_1" xmlns="http://www.w3.org/2000/svg" xmlns:xlink="http://www.w3.org/1999/xlink" x="0px" y="0px"
	 width="31.992px" height="32px" viewBox="0 0 31.992 32" style="enable-background:new 0 0 31.992 32;" xml:space="preserve">
<g>
	<path style="fill:#231F20;" d="M20.127,0C13.594,0,8.268,5.32,8.268,11.864c0,1.565,0.326,3.05,0.873,4.417L0,25.427L6.57,32
		l9.148-9.151c1.361,0.553,2.846,0.875,4.408,0.875c6.545,0,11.865-5.322,11.865-11.859C31.992,5.32,26.672,0,20.127,0z
		 M20.127,19.727c-4.33,0-7.861-3.531-7.861-7.862c0-4.338,3.531-7.869,7.861-7.869c4.342,0,7.873,3.531,7.873,7.869
		C28,16.195,24.469,19.727,20.127,19.727z"/>
</g>
</svg>
