<?xml version="1.0" encoding="utf-8"?>
<!-- Generator: Adobe Illustrator 14.0.0, SVG Export Plug-In . SVG Version: 6.00 Build 43363)  -->
<!DOCTYPE svg PUBLIC "-//W3C//DTD SVG 1.1//EN" "http://www.w3.org/Graphics/SVG/1.1/DTD/svg11.dtd">
<svg version="1.1" xmlns="http://www.w3.org/2000/svg" xmlns:xlink="http://www.w3.org/1999/xlink" x="0px" y="0px" width="32px"
	 height="32px" viewBox="0 0 32 32" enable-background="new 0 0 32 32" xml:space="preserve">
<g id="Layer_1">
</g>
<g id="moon_x5F_stroke_x5F_32x32">
	<path fill="#231F20" d="M5.891,9.148c0.852,8.959,8,16.109,16.961,16.953C20.938,27.311,18.698,28,16.352,28
		C9.539,28,4,22.459,4,15.646C4,13.3,4.688,11.059,5.891,9.148 M11.844,0C5.016,1.969,0,8.19,0,15.646C0,24.678,7.32,32,16.352,32
		c7.456,0,13.68-5.021,15.648-11.844c-2.18,1.256-4.672,2.029-7.367,2.029c-8.188,0-14.82-6.636-14.82-14.82
		C9.812,4.67,10.586,2.178,11.844,0L11.844,0z"/>
</g>
</svg>
