<?xml version="1.0" encoding="utf-8"?>
<!-- Generator: Adobe Illustrator 14.0.0, SVG Export Plug-In . SVG Version: 6.00 Build 43363)  -->
<!DOCTYPE svg PUBLIC "-//W3C//DTD SVG 1.1//EN" "http://www.w3.org/Graphics/SVG/1.1/DTD/svg11.dtd">
<svg version="1.1" xmlns="http://www.w3.org/2000/svg" xmlns:xlink="http://www.w3.org/1999/xlink" x="0px" y="0px" width="32px"
	 height="32px" viewBox="0 0 32 32" enable-background="new 0 0 32 32" xml:space="preserve">
<g id="Layer_1">
</g>
<g id="move_x5F_alt2_x5F_32x32">
	<path d="M16,0C7.165,0,0,7.164,0,16s7.165,16,16,16c8.837,0,16-7.164,16-16S24.837,0,16,0z M22,20v-2h-4v4h2l-4,4l-4-4h2v-4h-4v2
		l-4-4l4-4v2h4v-4h-2l4-4l4,4h-2v4h4v-2l4,4L22,20z"/>
</g>
</svg>
