<?xml version="1.0" encoding="utf-8"?>
<!-- Generator: Adobe Illustrator 14.0.0, SVG Export Plug-In . SVG Version: 6.00 Build 43363)  -->
<!DOCTYPE svg PUBLIC "-//W3C//DTD SVG 1.1//EN" "http://www.w3.org/Graphics/SVG/1.1/DTD/svg11.dtd">
<svg version="1.1" xmlns="http://www.w3.org/2000/svg" xmlns:xlink="http://www.w3.org/1999/xlink" x="0px" y="0px" width="32px"
	 height="32px" viewBox="0 0 32 32" enable-background="new 0 0 32 32" xml:space="preserve">
<g id="Layer_1">
</g>
<g id="pin_x5F_32x32">
	<path fill="#010101" d="M32,8c0-4.417-3.585-8-8-8c-2.984,0-5.562,1.659-6.938,4.086c0-0.002,0.004-0.004,0.004-0.005
		c-0.363-0.036-0.723-0.112-1.098-0.112c-6.625,0-12,5.371-12,12c0,2.527,0.79,4.865,2.125,6.799L0,32l9.29-6.064
		c1.913,1.283,4.21,2.033,6.679,2.033c6.629,0,12-5.371,12-12c0-0.346-0.069-0.669-0.101-1.008C30.321,13.594,32,11.005,32,8z
		 M15.969,23.969c-4.413,0-8-3.588-8-8c0-4.412,3.587-8,8-8c0.016,0,0.024,0.004,0.031,0.004c0-0.008,0.004-0.014,0.004-0.02
		C16.004,7.969,16,7.984,16,8c0,0.695,0.118,1.355,0.281,1.998l-3.172,3.174c-1.562,1.562-1.562,4.094,0,5.656s4.094,1.562,5.656,0
		l3.141-3.141c0.66,0.18,1.344,0.305,2.062,0.309C23.953,20.396,20.375,23.969,15.969,23.969z M24,12c-2.203,0-4-1.794-4-4
		s1.797-4,4-4s4,1.794,4,4S26.203,12,24,12z"/>
</g>
</svg>
