<?xml version="1.0" encoding="utf-8"?>
<!-- Generator: Adobe Illustrator 14.0.0, SVG Export Plug-In . SVG Version: 6.00 Build 43363)  -->
<!DOCTYPE svg PUBLIC "-//W3C//DTD SVG 1.1//EN" "http://www.w3.org/Graphics/SVG/1.1/DTD/svg11.dtd">
<svg version="1.1" xmlns="http://www.w3.org/2000/svg" xmlns:xlink="http://www.w3.org/1999/xlink" x="0px" y="0px" width="32px"
	 height="32px" viewBox="0 0 32 32" enable-background="new 0 0 32 32" xml:space="preserve">
<g id="Layer_1">
</g>
<g id="sun_x5F_32x32">
	<g>
		<path fill="#231F20" d="M24,16c0,4.417-3.585,8-8,8c-4.422,0-8-3.583-8-8s3.578-8,8-8C20.415,8,24,11.583,24,16z"/>
		<path fill="#231F20" d="M16,3.312c1.384,0,2.691,0.276,3.938,0.688H20l-4-4l-4,4h0.056C13.306,3.589,14.613,3.312,16,3.312z"/>
		<path fill="#231F20" d="M16,28.688c-1.387,0-2.694-0.276-3.944-0.688H12l4,4l4-4h-0.062C18.691,28.411,17.384,28.688,16,28.688z"
			/>
		<path fill="#231F20" d="M28.688,16c0,1.383-0.281,2.695-0.688,3.942V20l4-4l-4-4v0.058C28.406,13.305,28.688,14.617,28.688,16z"/>
		<path fill="#231F20" d="M3.312,16c0-1.383,0.274-2.695,0.688-3.942V12l-4,4l4,4v-0.058C3.587,18.695,3.312,17.383,3.312,16z"/>
		<path fill="#231F20" d="M24.969,24.969c-0.976,0.984-2.101,1.711-3.272,2.305l-0.04,0.039h5.656v-5.656l-0.043,0.042
			C26.681,22.87,25.953,23.992,24.969,24.969z"/>
		<path fill="#231F20" d="M7.031,7.031c0.978-0.984,2.094-1.711,3.266-2.305l0.047-0.039H4.688v5.656l0.04-0.042
			C5.321,9.13,6.047,8.008,7.031,7.031z"/>
		<path fill="#231F20" d="M7.031,24.969c-0.984-0.977-1.71-2.099-2.304-3.271l-0.04-0.042v5.656h5.656l-0.047-0.039
			C9.125,26.68,8.009,25.953,7.031,24.969z"/>
		<path fill="#231F20" d="M24.969,7.031c0.984,0.977,1.712,2.099,2.301,3.271l0.043,0.042V4.688h-5.656l0.04,0.039
			C22.868,5.32,23.993,6.047,24.969,7.031z"/>
	</g>
</g>
</svg>
