<?xml version="1.0" encoding="iso-8859-1"?>
<!-- Generator: Adobe Illustrator 14.0.0, SVG Export Plug-In . SVG Version: 6.00 Build 43363)  -->
<!DOCTYPE svg PUBLIC "-//W3C//DTD SVG 1.1//EN" "http://www.w3.org/Graphics/SVG/1.1/DTD/svg11.dtd">
<svg version="1.1" id="Layer_1" xmlns="http://www.w3.org/2000/svg" xmlns:xlink="http://www.w3.org/1999/xlink" x="0px" y="0px"
	 width="32px" height="32px" viewBox="0 0 32 32" style="enable-background:new 0 0 32 32;" xml:space="preserve">
<g>
	<path style="fill:#231F20;" d="M11.699,8.613c0,1.703-1.383,3.086-3.082,3.086c-1.703,0-3.086-1.383-3.086-3.086
		c0-1.699,1.383-3.078,3.086-3.078C10.316,5.535,11.699,6.914,11.699,8.613z"/>
	<g>
		<path style="fill:#231F20;" d="M0,0v13.273L18.727,32c0,0,0-10.793,0-13.27c2.477,0,13.273,0,13.273,0L13.273,0H0z M11.797,3.562
			c0.773,0.77,7.879,7.883,11.602,11.605c-3.102,0-8.234,0-8.234,0s0,5.133,0,8.227C11.441,19.676,4.336,12.566,3.562,11.801
			c0-1.055,0-5.961,0-8.238C5.84,3.562,10.742,3.562,11.797,3.562z"/>
	</g>
</g>
</svg>
