<?xml version="1.0" encoding="iso-8859-1"?>
<!-- Generator: Adobe Illustrator 14.0.0, SVG Export Plug-In . SVG Version: 6.00 Build 43363)  -->
<!DOCTYPE svg PUBLIC "-//W3C//DTD SVG 1.1//EN" "http://www.w3.org/Graphics/SVG/1.1/DTD/svg11.dtd">
<svg version="1.1" id="Layer_1" xmlns="http://www.w3.org/2000/svg" xmlns:xlink="http://www.w3.org/1999/xlink" x="0px" y="0px"
	 width="32px" height="32px" viewBox="0 0 32 32" style="enable-background:new 0 0 32 32;" xml:space="preserve">
<path style="fill:#231F20;" d="M28,4h-4c0-2.211-1.789-4-4-4h-8C9.789,0,8,1.789,8,4H4H0v4h4v18c0,3.312,2.688,6,6,6h12
	c3.312,0,6-2.688,6-6V8h4V4H28z M12,24c-1.105,0-2-0.896-2-2s0.895-2,2-2s2,0.896,2,2S13.105,24,12,24z M12,16c-1.105,0-2-0.896-2-2
	s0.895-2,2-2s2,0.896,2,2S13.105,16,12,16z M20,24c-1.105,0-2-0.896-2-2s0.895-2,2-2s2,0.896,2,2S21.105,24,20,24z M20,16
	c-1.105,0-2-0.896-2-2s0.895-2,2-2s2,0.896,2,2S21.105,16,20,16z"/>
</svg>
