<?xml version="1.0" encoding="iso-8859-1"?>
<!-- Generator: Adobe Illustrator 14.0.0, SVG Export Plug-In . SVG Version: 6.00 Build 43363)  -->
<!DOCTYPE svg PUBLIC "-//W3C//DTD SVG 1.1//EN" "http://www.w3.org/Graphics/SVG/1.1/DTD/svg11.dtd">
<svg version="1.1" id="Layer_1" xmlns="http://www.w3.org/2000/svg" xmlns:xlink="http://www.w3.org/1999/xlink" x="0px" y="0px"
	 width="24.008px" height="32px" viewBox="0 0 24.008 32" style="enable-background:new 0 0 24.008 32;" xml:space="preserve">
<path style="fill:#231F20;" d="M14.008,0c-5.516,0-10,4.487-10,10h4c0-3.309,2.688-6,6-6c3.305,0,6,2.691,6,6v2H0v14
	c0,3.308,2.695,6,6,6h12.008c3.305,0,6-2.692,6-6V10C24.008,4.487,19.518,0,14.008,0z M12,24c-1.102,0-2-0.896-2-2
	c0-1.105,0.898-2,2-2c1.109,0,2,0.895,2,2C14,23.104,13.109,24,12,24z"/>
</svg>
