<?xml version="1.0" encoding="iso-8859-1"?>
<!-- Generator: Adobe Illustrator 14.0.0, SVG Export Plug-In . SVG Version: 6.00 Build 43363)  -->
<!DOCTYPE svg PUBLIC "-//W3C//DTD SVG 1.1//EN" "http://www.w3.org/Graphics/SVG/1.1/DTD/svg11.dtd">
<svg version="1.1" id="Layer_1" xmlns="http://www.w3.org/2000/svg" xmlns:xlink="http://www.w3.org/1999/xlink" x="0px" y="0px"
	 width="32px" height="24px" viewBox="0 0 32 24" style="enable-background:new 0 0 32 24;" xml:space="preserve">
<g>
	<g>
		<path style="fill:#231F20;" d="M8,20c-4.416,0-8-3.579-8-8s3.584-8,8-8V20z"/>
	</g>
	<g>
		<polygon style="fill:#231F20;" points="12,4 20,0 20,24 12,20 		"/>
	</g>
	<path style="fill:#231F20;" d="M24.006,19.999v-4c0.328,0,0.666-0.046,1-0.125C26.762,15.423,28,13.829,28,12
		s-1.238-3.422-3.01-3.874c-0.318-0.078-0.656-0.118-0.984-0.118v-4c0.656,0,1.312,0.085,1.953,0.241C29.521,5.155,32,8.336,32,12
		c0,3.671-2.479,6.858-6.025,7.751C25.309,19.914,24.652,19.999,24.006,19.999L24.006,19.999z"/>
</g>
</svg>
