<?xml version="1.0" encoding="utf-8"?>
<!-- Generator: Adobe Illustrator 16.0.4, SVG Export Plug-In . SVG Version: 6.00 Build 0)  -->
<!DOCTYPE svg PUBLIC "-//W3C//DTD SVG 1.1//EN" "http://www.w3.org/Graphics/SVG/1.1/DTD/svg11.dtd">
<svg version="1.1" id="Layer_1" xmlns="http://www.w3.org/2000/svg" xmlns:xlink="http://www.w3.org/1999/xlink" x="0px" y="0px"
	 width="600px" height="199.49px" viewBox="0 0 600 199.49" enable-background="new 0 0 600 199.49" xml:space="preserve">
<g>
	<g>
		<path fill="#C0C0C0" d="M183.304,75.501c-12.949,0-20,5.398-27.019,10.469V36.669h-22.299v95.47l22.383,22.38v-53.683
			c6.593-5.034,11.511-7.361,20.517-7.361c5.673,0,9.375,3.045,9.375,11.485v56.862h22.382v-56.51
			C208.643,89.135,203.06,75.501,183.304,75.501z"/>
		<path fill="#C0C0C0" d="M215.422,132.192c0-12.35,6.676-23.279,24.873-23.279c0,0,24.929,0.156,24.929,0c0,0,0.165-5.282,0-5.441
			c0-9.048-4.229-10.469-11.347-10.469c-7.378,0-28.668,1.324-35.648,1.827V81.017c11.179-4.342,22.852-5.606,38.68-5.679
			c18.28-0.075,30.702,6.241,30.702,27.255v59.23h-17.672l-4.714-9.35c-0.931,1.84-12.843,10.572-25.811,10.308
			c-16.334-0.437-23.991-11.56-23.991-22.599V132.192z M245.742,144.795c9.362,0,19.482-6.568,19.482-6.568V122.67l-20.532,1.582
			c-5.91,0.553-6.884,4.923-6.884,8.635v4.125C237.808,144.07,241.625,144.795,245.742,144.795z"/>
		<path fill="#C0C0C0" d="M311.942,76.937l17.008,58.667l15.207-58.667h22.28l-5.907,22.867l14.062,35.8l16.746-58.667h24.029
			l-27.433,84.886h-25.025l-12.703-30.752l-9.602,30.752H315.15l-27.149-84.886H311.942z"/>
		<path fill="#C0C0C0" d="M420.062,81.412l13.709-4.634l3.758-23.662h18.625v23.662h18.977v17.104h-18.977v34.049
			c0,12.503,2.882,15.173,7.267,16.801c0,0,9.592,3.357,10.703,3.357v13.749h-19.513c-12.567,0-20.84-7.849-20.84-30.389V93.882
			h-13.709V81.412z"/>
		<path fill="#C0C0C0" d="M484.623,50.162c0-2.398,1.277-4,3.839-4h16.786c2.395,0,3.584,1.765,3.584,4v14.171
			c0,2.394-1.349,3.678-3.584,3.678h-16.786c-2.239,0-3.839-1.436-3.839-3.678V50.162z M485.431,76.937h22.376v84.886h-22.376
			V76.937z"/>
		<path fill="#C0C0C0" d="M559.637,76.142c29.233,0,38.729,10.708,38.729,44.435c0,31.496-9.055,42.044-38.729,42.044
			c-29.313,0-38.726-11.67-38.726-42.044C520.911,85.893,530.948,76.142,559.637,76.142z M559.637,144.639
			c12.611,0,16.35-1.711,16.35-24.062c0-23.772-3.01-26.453-16.35-26.453c-13.243,0-16.342,2.693-16.342,26.453
			C543.295,142.544,547.744,144.639,559.637,144.639z"/>
	</g>
	<path fill="#C0C0C0" d="M20.575,132.514c11.736,11.741,27.35,18.214,43.953,18.214c11.409,0,22.625-3.187,32.441-9.211l2.077-1.27
		l21.92,21.929h34.338l-39.099-39.1l1.274-2.067c15.091-24.593,11.39-56.007-8.997-76.393
		C96.742,32.876,81.129,26.409,64.528,26.409c-16.604,0-32.206,6.468-43.947,18.207C8.838,56.358,2.365,71.97,2.365,88.569
		C2.365,105.167,8.832,120.775,20.575,132.514z M37.745,61.785c7.148-7.156,16.663-11.095,26.783-11.095
		c10.117,0,19.629,3.939,26.78,11.095c7.155,7.158,11.095,16.668,11.095,26.785c0,10.121-3.94,19.63-11.098,26.783
		c-7.146,7.153-16.66,11.092-26.777,11.092c-10.12,0-19.634-3.938-26.786-11.092c-7.154-7.161-11.095-16.667-11.095-26.783
		C26.647,78.453,30.588,68.942,37.745,61.785z"/>
	<g>
		<path fill="#EC7929" d="M80.197,92.926v0.093c0.469,0.854,0.733,1.824,0.746,2.862c0,3.269-2.655,5.922-5.925,5.922
			c-3.27,0-5.918-2.653-5.918-5.922c0-1.442,0.515-2.767,1.378-3.796c0,0,14.464-20.137-5.785-33.498c0,0,5.875,15.86-8.129,22.527
			c0,0-3.866,2.729,0.4-6.335c0,0-11.89,6.683-11.89,22.814c0,7.291,3.776,13.691,9.474,17.376
			c-0.177-0.658-0.289-1.411-0.289-2.299c0.006-6.469,5.804-14.031,7.586-14.019c0,0,0.45,7.664,2.506,11.277
			c1.62,3.058,0.636,6.444-1.513,8.138c0.962,0.139,1.944,0.234,2.947,0.234c5.468,0,10.446-2.122,14.147-5.591
			c0,0-0.006-0.018-0.006-0.023C86.833,103.605,82.828,96.224,80.197,92.926z"/>
	</g>
</g>
</svg>
