<?xml version="1.0" encoding="utf-8"?>
<!-- Generator: Adobe Illustrator 16.0.4, SVG Export Plug-In . SVG Version: 6.00 Build 0)  -->
<!DOCTYPE svg PUBLIC "-//W3C//DTD SVG 1.1//EN" "http://www.w3.org/Graphics/SVG/1.1/DTD/svg11.dtd">
<svg version="1.1" id="Layer_1" xmlns="http://www.w3.org/2000/svg" xmlns:xlink="http://www.w3.org/1999/xlink" x="0px" y="0px"
	 width="600px" height="600px" viewBox="0 0 600 600" enable-background="new 0 0 600 600" xml:space="preserve">
<g>
	<g>
		<path fill="#17569E" d="M229.908,352.192c0,0-6.439,12.922-31.681,7.119c-25.219-5.803-70.497-32.977-82.78-45.277
			c-12.279-12.282-49.144-38.798-29.745-58.216c0,0-10.988-3.212-19.399-11.644c-8.413-8.394-11.662-25.841-4.526-32.958
			l20.038,8.396c0,0-7.101,16.169,0.656,18.741c7.756,2.592,14.872-4.507,18.104-7.756c3.249-3.229,14.235-15.511,6.461-23.267
			c-7.756-7.756-10.987,0.638-10.987,0.638l-9.689-9.689c0,0,16.808-10.348,32.319,5.164c15.531,15.531,10.987,30.404,10.987,30.404
			L229.908,352.192z"/>
		<path fill="#FFFFFF" d="M186.367,344.712c-21.097-4.854-59.001-27.613-69.276-37.886c-10.292-10.293-41.134-32.484-24.892-48.727
			c0,0,15.438-0.347,21.388-6.296c0,0-8.723,27.649,18.889,52.012C160.087,328.178,186.367,344.712,186.367,344.712z"/>
		<path fill="#17569E" d="M395.708,374.896c0,0,5.472,10.949,26.937,6.022c21.458-4.927,59.927-28.068,70.37-38.506
			c10.438-10.423,41.755-32.978,25.33-49.458c0,0,9.344-2.755,16.425-9.909c7.15-7.135,9.928-21.99,3.864-28.031l-17.004,7.154
			c0,0,6.059,13.742-0.584,15.932c-6.573,2.208-12.629-3.833-15.407-6.607c-2.696-2.737-12.04-13.193-5.474-19.781
			c6.642-6.607,9.344,0.547,9.344,0.547l8.252-8.249c0,0-14.308-8.796-27.523,4.397c-13.14,13.213-9.268,25.859-9.268,25.859
			L395.708,374.896z"/>
		<g>
			<path fill="#D5D5D5" d="M435.853,573.379c0-14.164-50.807-25.623-113.397-25.623c-62.634,0-113.425,11.459-113.425,25.623
				c0,14.159,50.791,25.621,113.425,25.621C385.046,599,435.853,587.538,435.853,573.379z"/>
			<path fill="#D5D5D5" d="M248.049,570.751c0-6.79-19.636-12.375-43.89-12.375c-24.235,0-43.892,5.585-43.892,12.375
				c0,6.859,19.657,12.407,43.892,12.407C228.414,583.158,248.049,577.61,248.049,570.751z"/>
			<path fill="#D5D5D5" d="M452.938,557.355c0-6.826-18.03-12.374-40.222-12.374c-22.265,0-40.295,5.548-40.295,12.374
				c0,6.823,18.03,12.371,40.295,12.371C434.908,569.727,452.938,564.179,452.938,557.355z"/>
		</g>
		<path fill="#17569E" d="M342.857,497.35c0,0,3.577,24.746-0.076,65.006c0,0,17.377,8.211,31.101,17.373
			c0,0,39.346-3.65,49.415-1.826v-13.724l-23.793-13.724V500.16L342.857,497.35z"/>
		<path fill="#17569E" d="M377.604,313.158c0,31.591-31.535,57.175-70.409,57.175c-38.891,0-70.426-25.584-70.426-57.175
			c0-31.572,31.535-57.158,70.426-57.158C346.069,256,377.604,281.586,377.604,313.158z"/>
		<path fill="#FFFFFF" d="M344.204,295.219c-1.347,7.828-12.624,12.428-25.198,10.273c-12.556-2.172-21.682-10.273-20.314-18.103
			c1.333-7.829,12.631-12.445,25.187-10.292C336.452,279.25,345.559,287.371,344.204,295.219z"/>
		<path fill="#17569E" d="M431.255,335.567c0,0,1.244,93.931-18.246,160.98c0,0-78.074,28.031-184.176-3.651
			c0,0-19.491-12.228-26.826-12.228c0,0-8.542-159.72-23.16-182.877C178.847,297.792,304.459,253.884,431.255,335.567z"/>
		<g>
			<g>
				<path fill="#FFFFFF" d="M406.804,445.886c-0.803,10.001-8.76,19.419-18.104,20.696c-35.55,4.562-71.596,4.562-107.199,0.071
					c-11.863-1.604-22.102-12.773-22.72-24.235c-1.441-25.074-2.886-49.819-4.346-74.238c-0.73-13.139,9.583-25.586,22.85-26.425
					c39.527-2.044,79.661,2.373,119.148,10.586c10.22,2.262,17.594,13.468,16.644,24.671
					C410.965,399.532,408.921,422.49,406.804,445.886z"/>
			</g>
			<path fill="#EC7929" d="M358.549,423.55c0,0.037,0,0.108,0,0.181c0.802,1.46,1.168,3.176,1.244,5.038
				c0,5.766-4.238,10.586-9.494,10.729c-5.182,0.111-9.448-4.598-9.448-10.438c0-2.628,0.839-4.964,2.223-6.826
				c0-0.107,23.067-35.805-9.23-60.003c0.018,0.037,9.38,28.433-12.979,40.368c0,0-6.169,4.891,0.64-11.316
				c0,0-18.979,12.082-18.961,40.331c0,12.812,6.021,24.456,15.091,31.392c-0.273-1.205-0.434-2.557-0.434-4.162
				c0-11.462,9.23-24.819,12.095-24.819c-0.019,0,0.716,13.724,4.001,20.222c2.573,5.474,1,11.531-2.409,14.525
				c1.515,0.292,3.08,0.474,4.672,0.438c8.76,0,16.717-4.159,22.625-10.583l-0.068-0.037
				C369.137,441.982,362.786,429.353,358.549,423.55z"/>
			<g>
				<path fill="#D5D5D5" d="M275.459,353.545c0.311-0.036,0.64-0.036,0.969-0.073c39.527-1.131,79.643,3.175,119.13,10.257
					c2.044,0.363,3.436,1.752,4.238,2.846c1.825,2.336,2.628,5.402,2.409,8.578c-2.117,23.249-4.161,46.9-6.281,70.918
					c0,0,0,0.036,0,0.072c0,0,0,0.035,0,0.071c-0.366,4.236-3.646,8.25-7.224,8.652c-35.55,3.686-71.596,3.686-107.181,0.036
					c-6.132-0.656-11.534-6.204-11.826-12.044c-1.478-25.77-2.92-51.247-4.361-76.466c-0.183-3.285,0.802-6.389,2.737-8.796
					C269.93,355.332,272.558,353.873,275.459,353.545 M275.443,341.937c-12.375,1.862-21.7,13.688-21.008,26.243
					c1.46,24.419,2.904,49.164,4.346,74.238c0.619,11.462,10.857,22.632,22.72,24.235c35.604,4.491,71.649,4.491,107.199-0.071l0,0
					c9.344-1.314,17.301-10.695,18.104-20.696c2.117-23.396,4.161-46.354,6.273-68.874c0.95-11.203-6.424-22.409-16.644-24.671
					c-39.487-8.213-79.621-12.63-119.148-10.586C276.665,341.755,276.062,341.829,275.443,341.937L275.443,341.937z"/>
			</g>
		</g>
		<path fill="#FFFFFF" d="M195.599,300.821c0,0,41.171-2.737,41.171,145.393C236.77,446.214,272.431,298.083,195.599,300.821z"/>
		<path fill="#FFFFFF" d="M223.96,316.37c0,0,144.517-3.651,183.861,25.603c0,0-85.987-23.777-180.193-11.897L223.96,316.37z"/>
		<path fill="#FFFFFF" d="M252.32,282.974h12.335c0,0,5.585-14.892,24.127-21.243C288.782,261.73,269.93,265.38,252.32,282.974z"/>
		<path fill="#17569E" d="M230.365,482.824c0,0,0,42.96-5.493,79.566c0,0,29.271,9.162,35.679,20.111c0,0,52.118-5.476,60.349-3.649
			v-17.374l-24.672-10.986l1.807-52.119L230.365,482.824z"/>
		<path fill="#FFFFFF" d="M257.501,522.132l2.429,43.947c0,0,28.668-3.068,40.24-3.068c0,0-23.177-5.474-34.126-5.474
			C266.043,557.537,261.773,528.848,257.501,522.132z"/>
		<path fill="#FFFFFF" d="M376.36,537.5l0.584,28.066c0,0,25.621-1.823,34.747-0.619c0,0-11.238-3.98-29.565-3.98L376.36,537.5z"/>
	</g>
	<g>
		<path fill="#17569E" d="M90.83,70.859v106.047h116.377V70.859H90.83z M197.351,167.053h-96.665v-86.32h96.665V167.053z"/>
		<g>
			<line fill="#17569E" x1="130.833" y1="162.034" x2="130.833" y2="85.733"/>
			<path fill="#17569E" d="M130.833,164.242c-1.225,0-2.19-0.985-2.19-2.208V85.733c0-1.223,0.965-2.208,2.19-2.208
				c1.205,0,2.19,0.985,2.19,2.208v76.301C133.023,163.257,132.038,164.242,130.833,164.242z"/>
		</g>
		<g>
			<line fill="#17569E" x1="112.875" y1="162.034" x2="112.875" y2="85.733"/>
			<path fill="#17569E" d="M112.875,164.242c-1.225,0-2.208-0.985-2.208-2.208V85.733c0-1.223,0.984-2.208,2.208-2.208
				c1.205,0,2.19,0.985,2.19,2.208v76.301C115.065,163.257,114.08,164.242,112.875,164.242z"/>
		</g>
		<g>
			<line fill="#17569E" x1="148.791" y1="162.034" x2="148.791" y2="85.733"/>
			<path fill="#17569E" d="M148.791,164.242c-1.205,0-2.208-0.985-2.208-2.208V85.733c0-1.223,1.003-2.208,2.208-2.208
				c1.205,0,2.208,0.985,2.208,2.208v76.301C150.999,163.257,149.995,164.242,148.791,164.242z"/>
		</g>
		<g>
			<line fill="#17569E" x1="166.748" y1="162.034" x2="166.748" y2="85.733"/>
			<path fill="#17569E" d="M166.748,164.242c-1.205,0-2.19-0.985-2.19-2.208V85.733c0-1.223,0.985-2.208,2.19-2.208
				c1.223,0,2.19,0.985,2.19,2.208v76.301C168.938,163.257,167.971,164.242,166.748,164.242z"/>
		</g>
		<g>
			<line fill="#17569E" x1="184.706" y1="162.034" x2="184.706" y2="85.733"/>
			<path fill="#17569E" d="M184.706,164.242c-1.205,0-2.19-0.985-2.19-2.208V85.733c0-1.223,0.985-2.208,2.19-2.208
				c1.223,0,2.208,0.985,2.208,2.208v76.301C186.914,163.257,185.929,164.242,184.706,164.242z"/>
		</g>
	</g>
	<g>
		<path fill="#17569E" d="M245.878,1v106.012h116.393V1H245.878z M352.417,97.156h-96.684V10.854h96.684V97.156z"/>
		<g>
			<line fill="#17569E" x1="285.881" y1="92.175" x2="285.881" y2="15.836"/>
			<path fill="#17569E" d="M285.881,94.364c-1.205,0-2.208-1.004-2.208-2.189V15.836c0-1.222,1.003-2.208,2.208-2.208
				c1.205,0,2.19,0.986,2.19,2.208v76.338C288.071,93.36,287.085,94.364,285.881,94.364z"/>
		</g>
		<g>
			<line fill="#17569E" x1="267.905" y1="92.175" x2="267.905" y2="15.836"/>
			<path fill="#17569E" d="M267.905,94.364c-1.206,0-2.19-1.004-2.19-2.189V15.836c0-1.222,0.984-2.208,2.19-2.208
				c1.223,0,2.208,0.986,2.208,2.208v76.338C270.113,93.36,269.128,94.364,267.905,94.364z"/>
		</g>
		<g>
			<line fill="#17569E" x1="303.839" y1="92.175" x2="303.839" y2="15.836"/>
			<path fill="#17569E" d="M303.839,94.364c-1.205,0-2.19-1.004-2.19-2.189V15.836c0-1.222,0.985-2.208,2.19-2.208
				c1.222,0,2.188,0.986,2.188,2.208v76.338C306.027,93.36,305.061,94.364,303.839,94.364z"/>
		</g>
		<g>
			<line fill="#17569E" x1="321.795" y1="92.175" x2="321.795" y2="15.836"/>
			<path fill="#17569E" d="M321.795,94.364c-1.205,0-2.187-1.004-2.187-2.189V15.836c0-1.222,0.981-2.208,2.187-2.208
				c1.207,0,2.193,0.986,2.193,2.208v76.338C323.988,93.36,323.002,94.364,321.795,94.364z"/>
		</g>
		<g>
			<line fill="#17569E" x1="339.756" y1="92.175" x2="339.756" y2="15.836"/>
			<path fill="#17569E" d="M339.756,94.364c-1.205,0-2.193-1.004-2.193-2.189V15.836c0-1.222,0.988-2.208,2.193-2.208
				c1.199,0,2.226,0.986,2.226,2.208v76.338C341.981,93.36,340.955,94.364,339.756,94.364z"/>
		</g>
	</g>
	<g>
		<path fill="#17569E" d="M400.964,111.665v106.012h116.354V111.665H400.964z M507.465,207.821h-96.649V121.52h96.649V207.821z"/>
		<g>
			<line fill="#17569E" x1="440.967" y1="202.822" x2="440.967" y2="126.483"/>
			<path fill="#17569E" d="M440.967,205.012c-1.244,0-2.194-0.968-2.194-2.19v-76.338c0-1.204,0.95-2.172,2.194-2.172
				c1.168,0,2.117,0.968,2.117,2.172v76.338C443.084,204.043,442.135,205.012,440.967,205.012z"/>
		</g>
		<g>
			<line fill="#17569E" x1="422.937" y1="202.822" x2="422.937" y2="126.483"/>
			<path fill="#17569E" d="M422.937,205.012c-1.168,0-2.193-0.968-2.193-2.19v-76.338c0-1.204,1.025-2.172,2.193-2.172
				c1.236,0,2.263,0.968,2.263,2.172v76.338C425.199,204.043,424.173,205.012,422.937,205.012z"/>
		</g>
		<g>
			<line fill="#17569E" x1="458.92" y1="202.822" x2="458.92" y2="126.483"/>
			<path fill="#17569E" d="M458.92,205.012c-1.236,0-2.262-0.968-2.262-2.19v-76.338c0-1.204,1.025-2.172,2.262-2.172
				c1.168,0,2.194,0.968,2.194,2.172v76.338C461.114,204.043,460.088,205.012,458.92,205.012z"/>
		</g>
		<g>
			<line fill="#17569E" x1="476.882" y1="202.822" x2="476.882" y2="126.483"/>
			<path fill="#17569E" d="M476.882,205.012c-1.244,0-2.194-0.968-2.194-2.19v-76.338c0-1.204,0.95-2.172,2.194-2.172
				c1.168,0,2.186,0.968,2.186,2.172v76.338C479.067,204.043,478.05,205.012,476.882,205.012z"/>
		</g>
		<g>
			<line fill="#17569E" x1="494.835" y1="202.822" x2="494.835" y2="126.483"/>
			<path fill="#17569E" d="M494.835,205.012c-1.236,0-2.186-0.968-2.186-2.19v-76.338c0-1.204,0.949-2.172,2.186-2.172
				c1.168,0,2.194,0.968,2.194,2.172v76.338C497.029,204.043,496.003,205.012,494.835,205.012z"/>
		</g>
	</g>
</g>
</svg>
