<?xml version="1.0" encoding="utf-8"?>
<!-- Generator: Adobe Illustrator 16.0.4, SVG Export Plug-In . SVG Version: 6.00 Build 0)  -->
<!DOCTYPE svg PUBLIC "-//W3C//DTD SVG 1.1//EN" "http://www.w3.org/Graphics/SVG/1.1/DTD/svg11.dtd">
<svg version="1.1" id="Layer_1" xmlns="http://www.w3.org/2000/svg" xmlns:xlink="http://www.w3.org/1999/xlink" x="0px" y="0px"
	 width="256px" height="256px" viewBox="268 178 256 256" enable-background="new 268 178 256 256" xml:space="preserve">
<polygon fill="#818182" points="445.758,300.465 445.758,280.446 432.998,280.446 432.998,300.465 374.713,300.465 374.713,313.225 
	471.277,313.225 471.277,332.364 484.037,332.364 484.037,300.465 "/>
<radialGradient id="SVGID_1_" cx="439.8086" cy="320.667" r="74.1722" gradientTransform="matrix(1 0 0 -1 0 613)" gradientUnits="userSpaceOnUse">
	<stop  offset="0" style="stop-color:#818182"/>
	<stop  offset="1" style="stop-color:#B99047"/>
</radialGradient>
<path fill="url(#SVGID_1_)" d="M407.261,211.378v76.14H513.5v-76.14H407.261z M496.335,224.138L460.38,250.36l-35.954-26.223
	H496.335z M420.02,274.758v-38.024l40.36,29.42l40.36-29.42v38.024H420.02z"/>
<radialGradient id="SVGID_2_" cx="477.6455" cy="290.7466" r="60.7127" gradientTransform="matrix(1 0 0 -1 0 613)" gradientUnits="userSpaceOnUse">
	<stop  offset="0" style="stop-color:#818182"/>
	<stop  offset="1" style="stop-color:#B99047"/>
</radialGradient>
<path fill="url(#SVGID_2_)" d="M407.261,403.221H513.5v-76.133H407.261V403.221z M420.02,390.461v-38.023l40.36,29.427l40.36-29.427
	v38.023H420.02z M424.426,339.847h71.923l-35.955,26.218L424.426,339.847z"/>
<radialGradient id="SVGID_3_" cx="383.4927" cy="306.1465" r="64.2467" gradientTransform="matrix(1 0 0 -1 0 613)" gradientUnits="userSpaceOnUse">
	<stop  offset="0" style="stop-color:#818182"/>
	<stop  offset="1" style="stop-color:#B99047"/>
</radialGradient>
<path fill="url(#SVGID_3_)" d="M274.829,351.304h106.24v-76.14h-106.24V351.304z M287.589,338.545v-38.023l40.359,29.419
	l40.361-29.419v38.023H287.589z M291.982,287.923h71.935l-35.968,26.224L291.982,287.923z"/>
</svg>
