<?xml version="1.0" encoding="utf-8"?>
<!-- Generator: Adobe Illustrator 16.0.4, SVG Export Plug-In . SVG Version: 6.00 Build 0)  -->
<!DOCTYPE svg PUBLIC "-//W3C//DTD SVG 1.1//EN" "http://www.w3.org/Graphics/SVG/1.1/DTD/svg11.dtd">
<svg version="1.1" id="Layer_1" xmlns="http://www.w3.org/2000/svg" xmlns:xlink="http://www.w3.org/1999/xlink" x="0px" y="0px"
	 width="256px" height="256px" viewBox="0 0 256 256" enable-background="new 0 0 256 256" xml:space="preserve">
<path fill="#9E5E09" d="M21.582,56.528c3.029-4.958,6.561-4.238,6.561-4.238l11.102-0.202c2.018,0,5.854,0.404,7.469-1.211
	c2.928-2.927,9.487-1.615,9.487-1.615c5.249-6.662,4.744,4.845,4.744,4.845c4.356,3.456,5.582,6.017,5.924,7.1
	c0.118,0.372,0.135,0.844,0.141,0.987c0.319,7.876,9.297,30.266,21.489,30.266c13.625,0,26.14-26.136,40.371-26.136
	c18.339,0,22.507-22.177,39.251-22.177c19.771,0,32.811,27.623,43.812,27.623c5.617,0,22.948,13.935,24.321,30.291
	c0.871,1.993,5.341,12.671,3.237,17.643c-2.325,5.497,2.114,3.805,2.537,8.245s-1.269,7.61-4.229,12.261
	c-2.684,4.217-6.403,2.676-8.336-5.211c-0.091,0.321-0.181,0.637-0.271,0.962c-3.432,12.313-1.312,26.14,0.101,31.085
	s0.201,6.863,0.201,6.863c-12.717,19.983-12.515,28.865-13.726,33.307c-1.218,4.467,1.614,8.074-6.561,9.184
	c-8.175,1.11-11.809-2.119-8.579-4.138s4.945-2.019,6.965-4.744c2.019-2.725,7.064-18.269,7.064-18.269s-7.671,12.314-7.469,14.029
	s1.918,5.35-8.781,3.735c-10.698-1.615,1.111-5.249,3.028-6.662c1.918-1.413,7.267-10.496,10.093-20.186
	c2.825-9.689,1.211-24.828,1.11-28.36c-0.101-3.533,0.101-6.056-3.836-10.396c-3.936-4.341-6.257-18.873-6.862-22.506
	c-0.605-3.634-9.892,3.633-18.167,8.477s-30.985,3.532-37.344,2.726c-6.358-0.808-7.771,1.211-7.771,1.211
	c-0.101,6.358,4.944,30.783,5.348,34.518c0.404,3.735,1.312,29.672,1.312,29.672c0.404,1.918-0.202,9.79,2.422,13.626
	s-4.037,6.358-7.166,6.358c-6.258,0-15.521-2.704-8.051-6.094c5.563-2.525,4.456-3.578,4.456-3.578
	c-8.85,0.188-5.589-4.356-5.589-4.356c2.624-2.726,6.358-0.707,5.854-10.599c-0.793-15.543-3.229-22.104-4.743-27.149
	c-1.514-5.047-7.672-24.93-10.902-31.39c-3.229-6.459-9.891-9.587-11.102-10.799c-1.211-1.21-0.605-0.302-22.405-2.018
	c-21.8-1.716-31.794-25.635-32.602-31.389c-0.807-5.753-3.936-15.542-13.221-17.258s-8.175-5.551-14.433-5.248
	c-6.257,0.303-8.074-1.01-8.074-1.01l-1.009-1.514C18.251,60.364,20.472,58.345,21.582,56.528z"/>
</svg>
