<?xml version="1.0" encoding="utf-8"?>
<!-- Generator: Adobe Illustrator 16.0.4, SVG Export Plug-In . SVG Version: 6.00 Build 0)  -->
<!DOCTYPE svg PUBLIC "-//W3C//DTD SVG 1.1//EN" "http://www.w3.org/Graphics/SVG/1.1/DTD/svg11.dtd">
<svg version="1.1" id="Layer_1" xmlns="http://www.w3.org/2000/svg" xmlns:xlink="http://www.w3.org/1999/xlink" x="0px" y="0px"
	 width="792px" height="612px" viewBox="0 0 792 612" enable-background="new 0 0 792 612" xml:space="preserve">
<g>
	<g>
		<path fill="#17569E" d="M341.207,272.954c0,0-3.508,7.012-17.187,3.856s-38.229-17.886-44.892-24.55
			c-6.664-6.664-26.654-21.042-16.131-31.565c0,0-5.963-1.752-10.523-6.312c-4.563-4.563-6.315-14.027-2.459-17.887l10.878,4.56
			c0,0-3.859,8.764,0.352,10.167c4.208,1.4,8.063-2.456,9.819-4.211c1.752-1.752,7.715-8.412,3.504-12.62
			c-4.208-4.208-5.96,0.352-5.96,0.352l-5.26-5.26c0,0,9.116-5.611,17.535,2.804c8.416,8.416,5.959,16.479,5.959,16.479
			L341.207,272.954z"/>
		<path fill="#FFFFFF" d="M317.593,268.896c-11.447-2.639-31.999-14.971-37.577-20.548c-5.578-5.578-22.307-17.617-13.502-26.421
			c0,0,8.374-0.188,11.605-3.414c0,0-4.725,14.993,10.246,28.203C303.338,259.927,317.593,268.896,317.593,268.896z"/>
		<path fill="#17569E" d="M431.11,285.252c0,0,2.984,5.963,14.611,3.279c11.627-2.685,32.497-15.21,38.161-20.874
			c5.668-5.664,22.659-17.887,13.716-26.83c0,0,5.069-1.494,8.943-5.368c3.879-3.878,5.369-11.927,2.093-15.206l-9.246,3.875
			c0,0,3.282,7.457-0.3,8.651c-3.574,1.19-6.854-2.089-8.348-3.583c-1.49-1.49-6.555-7.153-2.98-10.729
			c3.579-3.583,5.069,0.292,5.069,0.292l4.474-4.474c0,0-7.757-4.769-14.91,2.389c-7.154,7.157-5.065,14.016-5.065,14.016
			L431.11,285.252z"/>
		<g>
			<ellipse fill="#D5D5D5" cx="391.383" cy="392.91" rx="61.5" ry="13.889"/>
			<path fill="#D5D5D5" d="M351.041,391.488c0-3.707-10.654-6.713-23.805-6.713c-13.147,0-23.805,3.006-23.805,6.713
				c0,3.709,10.657,6.711,23.805,6.711C340.387,398.199,351.041,395.197,351.041,391.488z"/>
			<ellipse fill="#D5D5D5" cx="440.318" cy="384.215" rx="21.823" ry="6.713"/>
		</g>
		<path fill="#17569E" d="M402.454,351.676c0,0,1.936,13.416-0.045,35.242c0,0,9.426,4.461,16.861,9.422
			c0,0,21.33-1.984,26.784-0.992v-7.441l-12.896-7.439v-27.275L402.454,351.676z"/>
		<path fill="#17569E" d="M421.3,251.792c0,17.119-17.102,30.997-38.188,30.997c-21.091,0-38.191-13.877-38.191-30.997
			c0-17.123,17.1-31,38.191-31C404.198,220.792,421.3,234.669,421.3,251.792z"/>
		<path fill="#FFFFFF" d="M403.185,242.052c-0.73,4.249-6.848,6.746-13.668,5.574c-6.812-1.172-11.75-5.57-11.017-9.819
			c0.726-4.249,6.847-6.75,13.663-5.578C398.98,233.4,403.914,237.795,403.185,242.052z"/>
		<path fill="#17569E" d="M450.394,263.94c0,0,0.662,50.925-9.92,87.294c0,0-42.32,15.209-99.851-1.98
			c0,0-10.583-6.615-14.551-6.615c0,0-4.631-86.627-12.563-99.194C313.509,243.444,381.622,219.636,450.394,263.94z"/>
		<g>
			<g>
				<path fill="#FFFFFF" d="M437.119,323.764c-0.427,5.422-4.758,10.531-9.812,11.221c-19.294,2.475-38.828,2.477-58.129,0.037
					c-6.428-0.865-11.979-6.922-12.316-13.154c-0.786-13.59-1.568-27.006-2.354-40.231c-0.4-7.146,5.185-13.885,12.383-14.349
					c21.439-1.101,43.189,1.292,64.598,5.735c5.559,1.224,9.534,7.315,9.029,13.398
					C439.388,298.624,438.253,311.082,437.119,323.764z"/>
			</g>
			<path fill="#EC7929" d="M410.971,311.646c0,0.033,0,0.064,0,0.094c0.408,0.812,0.637,1.736,0.64,2.732
				c0,3.133-2.291,5.758-5.121,5.822c-2.826,0.062-5.121-2.494-5.121-5.672c0-1.4,0.449-2.688,1.198-3.688
				c0-0.068,12.507-19.425-5.005-32.538c0.004,0.003,5.076,15.408-7.037,21.896c0-0.008-3.344,2.65,0.348-6.144
				c-0.004,0.007-10.287,6.562-10.283,21.881c0,6.939,3.264,13.252,8.194,17.006c-0.153-0.641-0.247-1.373-0.247-2.23
				c0-6.23,5.013-13.484,6.562-13.484c-0.004,0,0.385,7.449,2.164,10.969c1.407,2.965,0.55,6.258-1.307,7.898
				c0.83,0.143,1.677,0.236,2.541,0.232c4.74-0.02,9.041-2.258,12.242-5.746c0.004,0-0.004-0.023-0.004-0.027
				C416.698,321.643,413.243,314.814,410.971,311.646z"/>
			<g>
				<path fill="#D5D5D5" d="M365.903,273.684c0.172-0.019,0.348-0.03,0.524-0.037c21.439-0.603,43.189,1.729,64.602,5.555
					c1.098,0.195,1.864,0.955,2.317,1.554c0.947,1.254,1.415,2.938,1.288,4.653c-1.139,12.604-2.272,25.429-3.41,38.444
					c0,0.016,0,0.027,0,0.039c-0.004,0.01-0.004,0.025-0.004,0.037c-0.18,2.32-1.958,4.492-3.897,4.701
					c-19.294,2.006-38.827,2-58.133,0.012c-3.32-0.355-6.255-3.369-6.42-6.51c-0.79-13.982-1.576-27.811-2.362-41.478
					c-0.093-1.786,0.431-3.474,1.49-4.77C362.9,274.658,364.323,273.864,365.903,273.684 M365.899,267.384
					c-6.712,1.015-11.773,7.427-11.392,14.252c0.786,13.226,1.568,26.642,2.354,40.231c0.337,6.232,5.889,12.289,12.316,13.154
					c19.301,2.439,38.835,2.438,58.129-0.037c0.008,0,0.012-0.004,0.019-0.004c5.042-0.697,9.366-5.799,9.793-11.217
					c1.134-12.682,2.269-25.14,3.399-37.344c0.505-6.083-3.471-12.174-9.029-13.398c-21.409-4.443-43.159-6.835-64.598-5.735
					C366.554,267.305,366.225,267.335,365.899,267.384L365.899,267.384z"/>
			</g>
		</g>
		<path fill="#FFFFFF" d="M322.602,245.095c0,0,22.319-1.486,22.319,78.86C344.921,323.955,364.263,243.609,322.602,245.095z"/>
		<path fill="#FFFFFF" d="M337.977,253.525c0,0,78.362-1.98,99.689,13.889c0,0-46.622-12.896-97.706-6.454L337.977,253.525z"/>
		<path fill="#FFFFFF" d="M353.351,235.422h6.697c0,0,3.025-8.075,13.084-11.526C373.132,223.896,362.9,225.876,353.351,235.422z"/>
		<path fill="#17569E" d="M341.45,343.793c0,0,0,23.311-2.976,43.15c0,0,15.869,4.961,19.343,10.912c0,0,28.267-2.977,32.733-1.984
			v-9.422l-13.39-5.951l0.992-28.271L341.45,343.793z"/>
		<path fill="#FFFFFF" d="M356.162,365.123l1.322,23.805c0,0,15.543-1.65,21.821-1.65c0,0-12.563-2.98-18.512-2.98
			C360.793,384.297,358.476,368.758,356.162,365.123z"/>
		<path fill="#FFFFFF" d="M420.618,373.447l0.329,15.211c0,0,13.889-0.992,18.849-0.33c0,0-6.117-2.148-16.041-2.152
			L420.618,373.447z"/>
	</g>
	<g>
		<path fill="#17569E" d="M265.775,120.392v57.5h63.116v-57.5H265.775z M323.545,172.546h-52.42v-46.801h52.42V172.546z"/>
		<g>
			<line fill="#17569E" x1="287.469" y1="169.836" x2="287.469" y2="128.448"/>
			<path fill="#17569E" d="M287.469,171.026c-0.659,0-1.19-0.532-1.19-1.19v-41.388c0-0.659,0.532-1.19,1.19-1.19
				c0.655,0,1.19,0.532,1.19,1.19v41.388C288.66,170.495,288.124,171.026,287.469,171.026z"/>
		</g>
		<g>
			<line fill="#17569E" x1="277.729" y1="169.836" x2="277.729" y2="128.448"/>
			<path fill="#17569E" d="M277.729,171.026c-0.659,0-1.19-0.532-1.19-1.19v-41.388c0-0.659,0.532-1.19,1.19-1.19
				c0.659,0,1.19,0.532,1.19,1.19v41.388C278.919,170.495,278.388,171.026,277.729,171.026z"/>
		</g>
		<g>
			<line fill="#17569E" x1="297.206" y1="169.836" x2="297.206" y2="128.448"/>
			<path fill="#17569E" d="M297.206,171.026c-0.651,0-1.19-0.532-1.19-1.19v-41.388c0-0.659,0.539-1.19,1.19-1.19
				c0.663,0,1.194,0.532,1.194,1.19v41.388C298.4,170.495,297.869,171.026,297.206,171.026z"/>
		</g>
		<g>
			<line fill="#17569E" x1="306.95" y1="169.836" x2="306.95" y2="128.448"/>
			<path fill="#17569E" d="M306.95,171.026c-0.659,0-1.19-0.532-1.19-1.19v-41.388c0-0.659,0.532-1.19,1.19-1.19
				c0.655,0,1.19,0.532,1.19,1.19v41.388C308.141,170.495,307.605,171.026,306.95,171.026z"/>
		</g>
		<g>
			<line fill="#17569E" x1="316.691" y1="169.836" x2="316.691" y2="128.448"/>
			<path fill="#17569E" d="M316.691,171.026c-0.659,0-1.19-0.532-1.19-1.19v-41.388c0-0.659,0.532-1.19,1.19-1.19
				s1.19,0.532,1.19,1.19v41.388C317.881,170.495,317.35,171.026,316.691,171.026z"/>
		</g>
	</g>
	<g>
		<path fill="#17569E" d="M349.858,82.5v57.493h63.115V82.5H349.858z M407.628,134.651h-52.42V87.846h52.42V134.651z"/>
		<g>
			<line fill="#17569E" x1="371.552" y1="131.94" x2="371.552" y2="90.545"/>
			<path fill="#17569E" d="M371.552,133.127c-0.659,0-1.19-0.531-1.19-1.187V90.545c0-0.655,0.532-1.19,1.19-1.19
				c0.655,0,1.19,0.535,1.19,1.19v41.396C372.742,132.596,372.207,133.127,371.552,133.127z"/>
		</g>
		<g>
			<line fill="#17569E" x1="361.812" y1="131.94" x2="361.812" y2="90.545"/>
			<path fill="#17569E" d="M361.812,133.127c-0.659,0-1.19-0.531-1.19-1.187V90.545c0-0.655,0.531-1.19,1.19-1.19
				c0.655,0,1.19,0.535,1.19,1.19v41.396C363.002,132.596,362.466,133.127,361.812,133.127z"/>
		</g>
		<g>
			<line fill="#17569E" x1="381.292" y1="131.94" x2="381.292" y2="90.545"/>
			<path fill="#17569E" d="M381.292,133.127c-0.655,0-1.19-0.531-1.19-1.187V90.545c0-0.655,0.535-1.19,1.19-1.19
				c0.659,0,1.191,0.535,1.191,1.19v41.396C382.483,132.596,381.951,133.127,381.292,133.127z"/>
		</g>
		<g>
			<line fill="#17569E" x1="391.029" y1="131.94" x2="391.029" y2="90.545"/>
			<path fill="#17569E" d="M391.029,133.127c-0.655,0-1.187-0.531-1.187-1.187V90.545c0-0.655,0.531-1.19,1.187-1.19
				c0.659,0,1.19,0.535,1.19,1.19v41.396C392.22,132.596,391.688,133.127,391.029,133.127z"/>
		</g>
		<g>
			<line fill="#17569E" x1="400.773" y1="131.94" x2="400.773" y2="90.545"/>
			<path fill="#17569E" d="M400.773,133.127c-0.659,0-1.19-0.531-1.19-1.187V90.545c0-0.655,0.531-1.19,1.19-1.19
				s1.19,0.535,1.19,1.19v41.396C401.964,132.596,401.433,133.127,400.773,133.127z"/>
		</g>
	</g>
	<g>
		<path fill="#17569E" d="M433.94,142.508v57.5h63.115v-57.5H433.94z M491.71,194.663h-52.42v-46.809h52.42V194.663z"/>
		<g>
			<line fill="#17569E" x1="455.631" y1="191.949" x2="455.631" y2="150.557"/>
			<path fill="#17569E" d="M455.631,193.139c-0.655,0-1.187-0.532-1.187-1.19v-41.392c0-0.659,0.531-1.19,1.187-1.19
				c0.659,0,1.19,0.532,1.19,1.19v41.392C456.821,192.607,456.29,193.139,455.631,193.139z"/>
		</g>
		<g>
			<line fill="#17569E" x1="445.894" y1="191.949" x2="445.894" y2="150.557"/>
			<path fill="#17569E" d="M445.894,193.139c-0.658,0-1.189-0.532-1.189-1.19v-41.392c0-0.659,0.531-1.19,1.189-1.19
				c0.655,0,1.191,0.532,1.191,1.19v41.392C447.085,192.607,446.549,193.139,445.894,193.139z"/>
		</g>
		<g>
			<line fill="#17569E" x1="465.375" y1="191.949" x2="465.375" y2="150.557"/>
			<path fill="#17569E" d="M465.375,193.139c-0.659,0-1.19-0.532-1.19-1.19v-41.392c0-0.659,0.531-1.19,1.19-1.19
				s1.19,0.532,1.19,1.19v41.392C466.565,192.607,466.034,193.139,465.375,193.139z"/>
		</g>
		<g>
			<line fill="#17569E" x1="475.112" y1="191.949" x2="475.112" y2="150.557"/>
			<path fill="#17569E" d="M475.112,193.139c-0.655,0-1.191-0.532-1.191-1.19v-41.392c0-0.659,0.536-1.19,1.191-1.19
				c0.658,0,1.189,0.532,1.189,1.19v41.392C476.302,192.607,475.771,193.139,475.112,193.139z"/>
		</g>
		<g>
			<line fill="#17569E" x1="484.856" y1="191.949" x2="484.856" y2="150.557"/>
			<path fill="#17569E" d="M484.856,193.139c-0.659,0-1.19-0.532-1.19-1.19v-41.392c0-0.659,0.531-1.19,1.19-1.19
				c0.654,0,1.19,0.532,1.19,1.19v41.392C486.047,192.607,485.511,193.139,484.856,193.139z"/>
		</g>
	</g>
	<g>
		<path fill="#17569E" d="M260.239,455.363l6.581-1.344v-7.832c0-7.188,2.89-12.338,12.383-12.338c3.878,0,7.154,0.494,10.598,1.898
			v6.572c-0.079,0-7.554-0.078-7.554-0.078c-4.455-0.078-4.35,2.152-4.35,6.555v5.223h9.531v8.465h-9.531v33.537H266.82v-33.537
			h-6.581V455.363z"/>
		<path fill="#17569E" d="M291.718,481.361c0-6.109,3.302-11.521,12.309-11.521c0,0,12.339,0.082,12.339,0c0,0,0.079-2.609,0-2.688
			c0-4.482-2.097-5.186-5.615-5.186c-3.65,0-14.188,0.658-17.64,0.906v-6.836c5.529-2.148,11.306-2.773,19.137-2.807
			c9.044-0.039,15.191,3.088,15.191,13.482v29.309h-8.745l-2.328-4.627c-0.464,0.914-6.36,5.232-12.776,5.102
			c-8.083-0.217-11.871-5.719-11.871-11.182V481.361z M306.722,487.598c4.635,0,9.644-3.252,9.644-3.252v-7.701l-10.164,0.787
			c-2.924,0.273-3.407,2.439-3.407,4.275v2.039C302.795,487.238,304.686,487.598,306.722,487.598z"/>
		<path fill="#17569E" d="M334.004,433.928h11.002v22.188c3.848-1.752,9.198-2.729,12.758-2.729
			c11.639,0,13.712,8.771,13.712,21.832c0,12.738-3.376,21.277-13.712,21.277c-4.986,0-10.055-2.594-12.679-4.705l-1.969,4.23
			h-9.112V433.928z M354.894,487.029c3.575,0,5.51-2.879,5.51-12.244c0-10.723-2.018-12.717-5.51-12.717
			c-3.83,0-6.915,0.457-9.808,1.58v20.791C347.447,485.963,350.734,487.029,354.894,487.029z"/>
		<path fill="#17569E" d="M377.983,454.02h9.336l1.74,5.301c2.909-2.811,6.825-5.73,12.047-5.73c1.816,0,3.561,0.07,4.68,0.5v10.691
			c-1.119-0.107-3.688-0.217-6.072-0.217c-4.582,0-7.917,0.75-10.654,4.676v26.781h-11.076V454.02z"/>
		<path fill="#17569E" d="M410.353,440.771c0-1.188,0.633-1.977,1.895-1.977h8.307c1.188,0,1.775,0.869,1.775,1.977v7.012
			c0,1.186-0.667,1.818-1.775,1.818h-8.307c-1.104,0-1.895-0.711-1.895-1.818V440.771z M410.75,454.02h11.077v42.002H410.75V454.02z
			"/>
		<path fill="#17569E" d="M442.146,453.627c4.114,0,12.413,0.242,19.343,2.488v6.881c0,0-7.559-0.471-14.6-0.471
			c-5.095,0-7.51,0.303-7.51,12.686c0,10.752,1.816,12.309,7.51,12.309c7.277,0,15.15-0.74,15.15-0.74v6.951
			c-6.144,3.125-13.327,2.609-19.894,2.688c-7.827,0-13.843-4.096-13.843-21.439C428.304,457.674,434.079,453.627,442.146,453.627z"
			/>
		<path fill="#17569E" d="M468.879,476.959c0-4.811,2.385-8.045,6.244-8.898c-5.503-2.395-6.244-6.969-6.244-11.51v-5.141
			c0-10.859,6.645-13.682,14.787-13.682h11.986c8.943,0,13.683,3.777,13.683,13.727v4.227c0.037,1.957-0.539,8.25-5.93,9.176
			c4.923,0.92,5.967,7.438,5.93,10.836v6.799c0,11.721-7.266,13.529-13.762,13.529h-11.907c-14.387,0-14.787-9.025-14.787-13.268
			V476.959z M485.234,461.852h7.921c4.512,0,5.106-2.322,5.106-4.904v-3.729c0-4.721-2.032-5.729-5.177-5.729h-7.457
			c-3.583,0-5.676,0.525-5.676,5.729v3.729C479.952,461.027,482.546,461.852,485.234,461.852z M485.628,486.254h7.423
			c3.444,0,5.211-1.635,5.211-4.742v-5.477c0-3.16-1.756-4.93-5.021-4.93h-8.007c-3.463,0-5.282,1.545-5.282,4.93v5.477
			C479.952,484.775,481.506,486.254,485.628,486.254z"/>
	</g>
</g>
</svg>
